<svg xmlns="http://www.w3.org/2000/svg" version="1.1" xmlns:xlink="http://www.w3.org/1999/xlink" width="512" height="512" x="0" y="0" viewBox="0 0 511.571 511.571" style="enable-background:new 0 0 512 512" xml:space="preserve" class=""><g><path d="M297.092 219.081c-26.926-26.925-54.574-50.049-77.852-65.111-28.651-18.539-46.604-22.563-56.499-12.67a17.174 17.174 0 0 0-4.141 6.583L4.379 497.535a10.001 10.001 0 0 0 13.151 13.2l350.859-153.212a17.171 17.171 0 0 0 6.485-4.092c9.895-9.895 5.868-27.848-12.671-56.499-15.061-23.277-38.185-50.925-65.111-77.851zm-25.29 158.796-26.327-26.327c-3.905-3.905-10.237-3.905-14.143 0-3.905 3.905-3.905 10.237 0 14.143l20.781 20.781-98.27 42.912-67.691-67.691 43.212-97.971 45.399 45.399c1.953 1.953 4.512 2.929 7.071 2.929s5.119-.976 7.071-2.929c3.905-3.905 3.905-10.237 0-14.143l-50.885-50.885 27.705-62.813c2.606 5.06 5.827 10.552 9.685 16.515 15.063 23.278 38.186 50.926 65.112 77.852 26.925 26.926 54.573 50.049 77.852 65.112 5.912 3.826 11.364 7.027 16.389 9.621zm11.147-144.653c23.773 23.773 44.755 48.449 59.08 69.482C355.85 323 359.55 334.185 360.04 338.598c-4.413-.49-15.599-4.19-35.892-18.011-21.034-14.325-45.71-35.306-69.483-59.08-23.773-23.773-44.755-48.449-59.08-69.482-13.821-20.294-17.521-31.479-18.011-35.892 4.413.49 15.599 4.191 35.892 18.011 21.035 14.325 45.71 35.306 69.483 59.08zM77.495 381.322l56.661 56.661-101.13 44.162zM419.134 106.203c-1.253-7.255-1.313-9.668.703-11.685 2.017-2.018 4.43-1.958 11.687-.705 7.795 1.346 19.579 3.38 29.229-6.273 3.905-3.905 3.904-10.237-.001-14.142-3.904-3.904-10.237-3.905-14.142.001-2.018 2.016-4.432 1.957-11.686.705-7.797-1.346-19.58-3.378-29.23 6.273-9.65 9.652-7.615 21.434-6.269 29.23 1.253 7.255 1.313 9.668-.704 11.686-2.015 2.016-4.426 1.958-11.684.704-7.795-1.345-19.578-3.38-29.229 6.271s-7.614 21.433-6.267 29.229c1.254 7.254 1.313 9.667-.702 11.683-2.017 2.016-4.43 1.957-11.683.703-7.795-1.346-19.577-3.381-29.229 6.271-3.905 3.905-3.904 10.237.001 14.142 1.952 1.952 4.511 2.928 7.07 2.928s5.119-.977 7.071-2.93c2.016-2.015 4.428-1.955 11.683-.703 7.796 1.347 19.578 3.382 29.229-6.27 9.65-9.651 7.614-21.434 6.268-29.23-1.254-7.253-1.313-9.667.701-11.682 2.016-2.016 4.43-1.957 11.683-.704 7.798 1.347 19.579 3.381 29.229-6.271 9.654-9.652 7.619-21.434 6.272-29.231zM220.972 117.071c1.953 1.953 4.512 2.929 7.071 2.929s5.119-.977 7.071-2.929c24.87-24.873 24.87-65.344 0-90.217-3.904-3.905-10.236-3.906-14.142 0-3.905 3.905-3.906 10.236 0 14.142 17.073 17.075 17.073 44.859 0 61.934-3.905 3.905-3.905 10.237 0 14.141zM452.557 297.053c-17.038 0-33.057 6.636-45.104 18.685-3.905 3.906-3.905 10.237.001 14.143 3.904 3.904 10.237 3.904 14.142-.001 8.271-8.271 19.266-12.827 30.962-12.827s22.691 4.555 30.962 12.827c1.952 1.953 4.512 2.929 7.071 2.929s5.118-.976 7.07-2.928c3.906-3.905 3.906-10.237.001-14.143-12.049-12.049-28.067-18.685-45.105-18.685zM482.651 50c5.523 0 10-4.478 10-10l-.001-30c0-5.522-4.478-10-10-10-5.523 0-10 4.478-10 10l.001 30c0 5.523 4.477 10 10 10zM304.124 70.082h9.919v9.919c0 5.523 4.478 10 10.001 10 5.522 0 9.999-4.478 9.999-10v-9.919h9.918c5.523 0 10-4.478 10-10s-4.478-10-10-10h-9.919v-9.919c0-5.523-4.478-10-10.001-10-5.522 0-9.999 4.478-9.999 10v9.919h-9.918c-5.523 0-10 4.478-10 10s4.478 10 10 10zM498.042 141l-30 .001c-5.522 0-9.999 4.478-9.999 10s4.478 10 10.001 10l30-.001c5.522 0 9.999-4.478 9.999-10s-4.477-10.001-10.001-10zM433.043 263c16.542 0 30-13.458 30-30s-13.458-30-30-30-30 13.458-30 30 13.458 30 30 30zm0-40c5.514 0 10 4.486 10 10s-4.486 10-10 10-10-4.486-10-10 4.486-10 10-10z" fill="#941A20" opacity="1" data-original="#000000"></path><path d="M210.12 320.337c-5.522 0-10 4.477-10 10s4.478 10 10 10h.01c5.522 0 9.995-4.477 9.995-10s-4.482-10-10.005-10zM434.041 360.241c-5.522 0-10 4.477-10 10s4.478 10 10 10h.01c5.522 0 9.995-4.477 9.995-10s-4.483-10-10.005-10zM494.041 200c-5.522 0-10 4.477-10 10s4.478 10 10 10h.01c5.522 0 9.995-4.477 9.995-10s-4.483-10-10.005-10zM363.707 230.701c-5.522 0-10 4.477-10 10s4.478 10 10 10h.01c5.522 0 9.995-4.477 9.995-10s-4.482-10-10.005-10zM283.133 131c-5.522 0-10 4.477-10 10s4.478 10 10 10h.01c5.522 0 9.995-4.477 9.995-10s-4.483-10-10.005-10zM404.133 10.993c-5.522 0-10 4.477-10 10s4.478 10 10 10h.01c5.522 0 9.995-4.477 9.995-10s-4.483-10-10.005-10zM174.041 60c-5.522 0-10 4.477-10 10s4.478 10 10 10h.01c5.522 0 9.995-4.477 9.995-10s-4.483-10-10.005-10z" fill="#941A20" opacity="1" data-original="#000000"></path></g></svg>