<svg xmlns="http://www.w3.org/2000/svg" version="1.1" xmlns:xlink="http://www.w3.org/1999/xlink" width="512" height="512" x="0" y="0" viewBox="0 0 512.001 512.001" style="enable-background:new 0 0 512 512" xml:space="preserve" class=""><g><path d="M354.675 180.814h-22.714a79.011 79.011 0 0 0-5.28-12.753L342.741 152a10.558 10.558 0 0 0 3.112-7.515c0-2.84-1.105-5.509-3.112-7.516l-18.901-18.902c-4.144-4.141-10.886-4.143-15.031.001l-16.061 16.061a78.958 78.958 0 0 0-12.753-5.28v-22.715c-.001-5.86-4.769-10.629-10.63-10.629h-26.731c-5.86 0-10.628 4.768-10.628 10.629v22.715a79.059 79.059 0 0 0-12.754 5.28l-16.062-16.062c-4.144-4.142-10.886-4.141-15.03.001l-18.9 18.9a10.556 10.556 0 0 0-3.114 7.516c0 2.839 1.106 5.508 3.113 7.515l16.061 16.061a78.958 78.958 0 0 0-5.28 12.753h-22.715c-5.86 0-10.628 4.768-10.628 10.629v26.731c0 5.86 4.768 10.628 10.628 10.628h22.715a79.011 79.011 0 0 0 5.28 12.753l-16.061 16.061c-4.144 4.144-4.144 10.887 0 15.031l18.901 18.901c4.144 4.145 10.888 4.144 15.031 0l16.061-16.061a78.969 78.969 0 0 0 12.754 5.28v22.715c0 5.86 4.768 10.628 10.628 10.628h26.731c5.86 0 10.629-4.768 10.629-10.628v-22.715a78.996 78.996 0 0 0 12.753-5.28l16.061 16.061c4.145 4.145 10.888 4.144 15.032 0l18.9-18.901a10.558 10.558 0 0 0 3.112-7.515c0-2.839-1.105-5.508-3.112-7.516l-16.061-16.061a78.958 78.958 0 0 0 5.28-12.753h22.715c5.86 0 10.629-4.768 10.629-10.628v-26.731c.001-5.86-4.768-10.628-10.628-10.628zm-4.37 32.987h-24.059a7.5 7.5 0 0 0-7.303 5.792 64.129 64.129 0 0 1-7.978 19.267 7.501 7.501 0 0 0 1.067 9.261l17.011 17.011-12.718 12.718-17.011-17.011a7.5 7.5 0 0 0-9.262-1.068 64.183 64.183 0 0 1-19.266 7.979 7.499 7.499 0 0 0-5.792 7.303v24.06h-17.985v-24.06a7.5 7.5 0 0 0-5.792-7.303 64.097 64.097 0 0 1-19.267-7.979 7.504 7.504 0 0 0-9.261 1.068l-17.011 17.011-12.718-12.718 17.011-17.011a7.501 7.501 0 0 0 1.068-9.261 64.15 64.15 0 0 1-7.978-19.267 7.5 7.5 0 0 0-7.303-5.792h-24.059v-17.985h24.059a7.5 7.5 0 0 0 7.303-5.792 64.15 64.15 0 0 1 7.978-19.267 7.502 7.502 0 0 0-1.068-9.261l-17.011-17.011 12.718-12.718 17.011 17.011a7.5 7.5 0 0 0 9.261 1.068 64.129 64.129 0 0 1 19.267-7.978 7.499 7.499 0 0 0 5.792-7.303v-24.06h17.985v24.06a7.5 7.5 0 0 0 5.792 7.303 64.161 64.161 0 0 1 19.267 7.978 7.506 7.506 0 0 0 9.261-1.068l17.011-17.011 12.718 12.718-17.011 17.011a7.5 7.5 0 0 0-1.067 9.261 64.16 64.16 0 0 1 7.978 19.267 7.5 7.5 0 0 0 7.303 5.792h24.059v17.985z" fill="#941A20" opacity="1" data-original="#000000" class=""></path><path d="M256 164.628c-22.156 0-40.18 18.025-40.18 40.18s18.025 40.18 40.18 40.18 40.18-18.025 40.18-40.18-18.024-40.18-40.18-40.18zm0 65.36c-13.884 0-25.18-11.296-25.18-25.18s11.296-25.18 25.18-25.18 25.18 11.296 25.18 25.18-11.296 25.18-25.18 25.18zM83.574 197.308H58.692a7.5 7.5 0 0 0 0 15h24.882a7.5 7.5 0 0 0 0-15zM453.309 197.308h-24.882c-4.143 0-7.5 3.358-7.5 7.5s3.357 7.5 7.5 7.5h24.882a7.5 7.5 0 0 0 0-15zM139.379 321.429a7.5 7.5 0 0 0-10.607 0l-17.594 17.594a7.5 7.5 0 0 0 10.607 10.607l17.594-17.594a7.5 7.5 0 0 0 0-10.607zM400.822 59.988a7.502 7.502 0 0 0-10.608 0L372.62 77.582a7.5 7.5 0 1 0 10.608 10.607l17.594-17.594a7.5 7.5 0 0 0 0-10.607zM256.001 0a7.5 7.5 0 0 0-7.5 7.5v24.882c0 4.142 3.357 7.5 7.5 7.5s7.5-3.358 7.5-7.5V7.5a7.5 7.5 0 0 0-7.5-7.5zM400.822 339.023l-17.594-17.594a7.502 7.502 0 0 0-10.608 10.607l17.594 17.594a7.502 7.502 0 0 0 10.608-10.607zM139.379 77.582l-17.594-17.594a7.5 7.5 0 0 0-10.607 10.607l17.594 17.594a7.5 7.5 0 0 0 10.607-10.607zM405.629 186.435c-8.071-68.875-62.668-123.477-131.22-131.833-4.105-.505-7.852 2.426-8.354 6.537a7.502 7.502 0 0 0 6.538 8.354c62.257 7.588 110.837 56.395 118.136 118.688a7.5 7.5 0 0 0 8.322 6.576 7.499 7.499 0 0 0 6.578-8.322z" fill="#941A20" opacity="1" data-original="#000000" class=""></path><path d="M398.963 214.868a7.494 7.494 0 0 0-8.383 6.499c-5.113 40.388-27.909 76.025-62.543 97.77-14.931 9.375-23.844 25.419-23.844 42.917v30.867H207.81v-31.55c0-16.944-8.855-32.952-23.108-41.775-40.306-24.95-64.37-68.107-64.371-115.446 0-68.352 51.198-126.238 119.091-134.648a7.5 7.5 0 0 0 6.521-8.366c-.509-4.11-4.253-7.037-8.366-6.521-75.015 9.293-132.25 73.803-132.249 149.535 0 26.133 6.797 51.881 19.658 74.461 12.467 21.89 30.386 40.472 51.818 53.739 9.871 6.11 16.002 17.23 16.002 29.02v32.643c-7.626 2.65-13.125 9.892-13.125 18.409v10.692c0 4.527 1.564 8.688 4.161 12.001-2.598 3.313-4.161 7.473-4.161 12.001v10.691c0 10.753 8.749 19.501 19.501 19.501h23.58v16.955c0 9.781 7.957 17.738 17.737 17.738h30.997c9.781 0 17.737-7.957 17.737-17.738v-16.955h23.58c10.753 0 19.501-8.749 19.501-19.501v-10.691c0-4.527-1.564-8.688-4.162-12.001 2.598-3.313 4.162-7.473 4.162-12.001v-10.692c0-8.518-5.498-15.759-13.125-18.409v-31.96c0-12.305 6.287-23.599 16.82-30.212 38.454-24.144 63.768-63.724 69.447-108.59a7.493 7.493 0 0 0-6.493-8.383zM274.235 494.262c0 1.483-1.253 2.737-2.736 2.737h-30.997c-1.483 0-2.736-1.253-2.736-2.737v-16.955h36.469v16.955zm43.082-36.456c0 2.439-2.061 4.5-4.5 4.5H199.185c-2.439 0-4.5-2.061-4.5-4.5v-10.691c0-2.439 2.061-4.5 4.5-4.5h113.632c2.439 0 4.5 2.061 4.5 4.5v10.691zm0-34.693c0 2.439-2.061 4.5-4.5 4.5H199.185c-2.439 0-4.5-2.061-4.5-4.5v-10.692c0-2.439 2.061-4.5 4.5-4.5h113.632c2.439 0 4.5 2.061 4.5 4.5v10.692z" fill="#941A20" opacity="1" data-original="#000000" class=""></path></g></svg>