<svg xmlns="http://www.w3.org/2000/svg" version="1.1" xmlns:xlink="http://www.w3.org/1999/xlink" width="512" height="512" x="0" y="0" viewBox="0 0 512 512" style="enable-background:new 0 0 512 512" xml:space="preserve"><g><path d="M508.344 237.481a13.166 13.166 0 0 0-9.429-4.008H220.684l13.745-138.512c.349-3.506-.809-7.014-3.174-9.625s-5.742-4.109-9.265-4.109H37.176c-3.523 0-6.9 1.498-9.265 4.108a12.523 12.523 0 0 0-3.174 9.626L50.656 356.17h-29.69C9.405 356.17 0 365.575 0 377.136s9.405 20.966 20.966 20.966h16.888c12.129 26.417 38.499 43.638 68.134 43.638h299.404c7.21 0 13.076-5.866 13.076-13.076v-40.566c25.91-12.117 48.174-30.867 64.606-54.465 17.778-25.532 27.777-55.486 28.916-86.625.13-3.517-1.2-6.989-3.646-9.527zm-462.14-78.09H146c4.143 0 7.5-3.357 7.5-7.5s-3.357-7.5-7.5-7.5H44.716l-4.779-48.163H219.23l-4.779 48.163H181c-4.143 0-7.5 3.357-7.5 7.5s3.357 7.5 7.5 7.5h31.962l-7.351 74.083h-5.028a13.167 13.167 0 0 0-9.43 4.008 13.107 13.107 0 0 0-3.647 9.525c.178 4.859.602 9.684 1.21 14.473a25.081 25.081 0 0 0-9.327-1.813c-7.692 0-14.853 3.533-19.727 9.712-2.92-1.083-5.969-1.652-8.988-1.652-9.113 0-17.241 4.793-21.742 12.82a26.7 26.7 0 0 0-1.341 2.747 26.595 26.595 0 0 0-2.168-.088c-10.422 0-19.593 6.205-23.363 15.812a26.228 26.228 0 0 0-1.619 6.352c-9.761 1.881-17.402 8.9-19.752 18.636-.775 3.207-.901 6.574-.401 9.909-7.808 3.848-13.019 11.078-13.908 19.924a25.347 25.347 0 0 0-.121 2.332h-.528zm-25.238 223.71c-3.29 0-5.966-2.677-5.966-5.966s2.676-5.966 5.966-5.966H221c4.143 0 7.5-3.357 7.5-7.5s-3.357-7.5-7.5-7.5H81.266c.004-.278.009-.556.036-.833.479-4.762 4.118-8.284 9.498-9.193a7.5 7.5 0 0 0 5.504-10.656c-1.271-2.636-1.641-5.462-1.036-7.961 1.123-4.652 5.242-7.659 10.495-7.659.503 0 1.019.027 1.532.083a7.5 7.5 0 0 0 8.173-8.81c-.434-2.365-.247-4.602.554-6.645 1.5-3.82 5.189-6.289 9.399-6.289 1.584 0 3.2.327 4.805.972a7.496 7.496 0 0 0 6.701-.556 7.497 7.497 0 0 0 3.563-5.702c.174-1.85.687-3.544 1.523-5.036 1.838-3.277 4.994-5.157 8.659-5.157 2.441 0 5.024.943 7.274 2.657a7.503 7.503 0 0 0 11.539-3.257 13.352 13.352 0 0 1 1.804-3.266c2.018-2.666 4.97-4.194 8.098-4.194 3.379 0 6.645 1.76 8.958 4.828a7.498 7.498 0 0 0 11.977-.001c2.313-3.067 5.577-4.827 8.956-4.827 3.127 0 6.078 1.529 8.098 4.194.73.965 1.338 2.065 1.806 3.27a7.501 7.501 0 0 0 11.539 3.253c2.248-1.714 4.83-2.657 7.272-2.657 3.664 0 6.82 1.88 8.657 5.155.838 1.495 1.351 3.191 1.525 5.04a7.5 7.5 0 0 0 10.264 6.255c1.603-.644 3.219-.971 4.804-.971 4.21 0 7.898 2.469 9.397 6.289.802 2.044.988 4.28.556 6.646a7.498 7.498 0 0 0 1.88 6.453 7.478 7.478 0 0 0 6.295 2.355 14.37 14.37 0 0 1 1.53-.082c5.252 0 9.371 3.007 10.494 7.659.604 2.498.235 5.326-1.037 7.962a7.502 7.502 0 0 0 5.505 10.655c5.379.909 9.018 4.432 9.496 9.192.028.277.033.556.037.834H256c-4.143 0-7.5 3.357-7.5 7.5s3.357 7.5 7.5 7.5h111.702c3.29 0 5.966 2.677 5.966 5.966s-2.676 5.966-5.966 5.966zm261.714 43.638H105.988c-21.274 0-40.446-11.092-51.173-28.638h279.037c-10.727 17.546-29.898 28.638-51.172 28.638zm188.086-101.68c-15.784 22.667-37.487 40.404-62.765 51.297a7.499 7.499 0 0 0-4.532 6.888v43.495h-75.735a74.8 74.8 0 0 0 23.08-28.638h16.889c11.561 0 20.966-9.405 20.966-20.966s-9.405-20.966-20.966-20.966h-45.295a25.063 25.063 0 0 0-.121-2.335c-.889-8.844-6.099-16.074-13.906-19.922.499-3.333.373-6.7-.401-9.907a24.897 24.897 0 0 0-3.547-8.084h172.199a147.774 147.774 0 0 1-5.866 9.138zm13.603-24.137H287.263c-.197-.64-.41-1.276-.657-1.905-3.768-9.604-12.938-15.811-23.36-15.811-.724 0-1.447.029-2.169.088-.118-.281-.25-.556-.378-.833h230.459a146.354 146.354 0 0 1-6.789 18.461zm10.337-33.461H227.328c-4.77-4.983-11.196-7.794-18.048-7.794a25.05 25.05 0 0 0-5.595.644 145.628 145.628 0 0 1-1.102-11.837h294.332a147.784 147.784 0 0 1-2.209 18.987z" fill="#941A20" opacity="1" data-original="#000000"></path><path d="M185.918 306.672h-11.222c-4.143 0-7.5 3.357-7.5 7.5s3.357 7.5 7.5 7.5h11.222c4.143 0 7.5-3.357 7.5-7.5s-3.357-7.5-7.5-7.5zM239.78 322.382h-11.222c-4.143 0-7.5 3.357-7.5 7.5s3.357 7.5 7.5 7.5h11.222c4.143 0 7.5-3.357 7.5-7.5s-3.357-7.5-7.5-7.5zM137.666 327.993h-11.221c-4.143 0-7.5 3.357-7.5 7.5s3.357 7.5 7.5 7.5h11.221c4.143 0 7.5-3.357 7.5-7.5s-3.357-7.5-7.5-7.5zM291.852 216.545c4.143 0 7.5-3.357 7.5-7.5v-13.742c0-5.125 4.17-9.295 9.295-9.295H379.9c13.396 0 24.295-10.898 24.295-24.295s-10.898-24.295-24.295-24.295h-61.073c-5.126 0-9.296-4.17-9.296-9.296 0-5.125 4.17-9.295 9.296-9.295H375c4.143 0 7.5-3.357 7.5-7.5s-3.357-7.5-7.5-7.5h-56.174c-13.396 0-24.296 10.898-24.296 24.295s10.899 24.296 24.296 24.296h61.073c5.125 0 9.295 4.17 9.295 9.295s-4.17 9.295-9.295 9.295h-71.253c-13.396 0-24.295 10.898-24.295 24.295v13.742a7.501 7.501 0 0 0 7.501 7.5zM410.079 118.721h50.19c13.36 0 24.23-10.87 24.23-24.23s-10.87-24.229-24.23-24.229h-33.46c-4.143 0-7.5 3.357-7.5 7.5s3.357 7.5 7.5 7.5h33.46c5.09 0 9.23 4.141 9.23 9.229 0 5.09-4.141 9.23-9.23 9.23h-50.19c-4.143 0-7.5 3.357-7.5 7.5s3.358 7.5 7.5 7.5z" fill="#941A20" opacity="1" data-original="#000000"></path></g></svg>