<svg xmlns="http://www.w3.org/2000/svg" version="1.1" xmlns:xlink="http://www.w3.org/1999/xlink" width="512" height="512" x="0" y="0" viewBox="0 0 512 512" style="enable-background:new 0 0 512 512" xml:space="preserve"><g><path d="M273.05 154.04c28.39 0 51.5-23.1 51.5-51.5s-23.1-51.5-51.5-51.5-51.5 23.1-51.5 51.5 23.11 51.5 51.5 51.5zm0-90.99c21.78 0 39.5 17.72 39.5 39.5s-17.72 39.5-39.5 39.5-39.5-17.72-39.5-39.5 17.72-39.5 39.5-39.5zm-68.43 67.84v17.86c0 10.61 7.48 19.5 17.44 21.7l-16.55 40.92c-.85 2.1-.44 4.51 1.06 6.21s3.83 2.42 6.02 1.84l17.99-4.7 9.66 15.89a5.985 5.985 0 0 0 5.12 2.88c.16 0 .32-.01.49-.02a6.005 6.005 0 0 0 5.08-3.73l16.34-40.42c1.86.5 3.79.77 5.77.77s3.91-.28 5.77-.77l16.34 40.42a5.992 5.992 0 0 0 5.57 3.75c2.08 0 4.03-1.08 5.12-2.88l9.66-15.89 17.99 4.7c2.2.57 4.53-.14 6.02-1.84s1.91-4.11 1.06-6.21l-16.55-40.92c9.96-2.2 17.43-11.09 17.43-21.7v-17.86l12.63-12.63c4.18-4.18 6.49-9.76 6.49-15.71s-2.3-11.53-6.49-15.71l-12.6-12.64V56.34c0-12.25-9.97-22.22-22.22-22.22H301.4l-12.63-12.63C284.58 17.3 279 15 273.05 15s-11.53 2.3-15.71 6.49l-12.63 12.63h-17.86c-12.25 0-22.22 9.97-22.22 22.22V74.2L192 86.83c-4.18 4.18-6.49 9.76-6.49 15.71s2.3 11.53 6.49 15.71zm39.67 83.27-5.78-9.49a5.995 5.995 0 0 0-6.64-2.69l-10.75 2.81 13.68-33.82h9.92l12.14 12.14zm69.94-12.18c-2.57-.67-5.27.42-6.64 2.69l-5.78 9.49-12.56-31.05 12.14-12.14h9.92l13.68 33.82zM200.48 95.32l14.39-14.39a6.03 6.03 0 0 0 1.76-4.24V56.34c0-5.64 4.58-10.22 10.22-10.22h20.35c1.59 0 3.12-.63 4.24-1.76l14.39-14.39c1.92-1.92 4.48-2.97 7.23-2.97 2.74 0 5.31 1.06 7.23 2.97l14.39 14.39a6.03 6.03 0 0 0 4.24 1.76h20.35c5.64 0 10.22 4.58 10.22 10.22v20.35c0 1.59.63 3.12 1.76 4.24l14.39 14.39c1.92 1.92 2.97 4.48 2.97 7.23 0 2.74-1.06 5.31-2.97 7.23l-14.39 14.39a6.03 6.03 0 0 0-1.76 4.24v20.35c0 5.64-4.58 10.22-10.22 10.22h-20.35c-1.59 0-3.12.63-4.24 1.76l-14.39 14.39c-1.92 1.92-4.48 2.97-7.23 2.97-2.74 0-5.31-1.06-7.23-2.97l-14.39-14.39a6.03 6.03 0 0 0-4.24-1.76h-20.35c-5.64 0-10.22-4.58-10.22-10.22V128.4c0-1.59-.63-3.12-1.76-4.24l-14.39-14.39c-1.92-1.92-2.97-4.48-2.97-7.23 0-2.74 1.05-5.31 2.97-7.22zm47.61 11.47c-2.34-2.34-2.34-6.14 0-8.49 2.34-2.34 6.14-2.34 8.49 0l9.57 9.57 23.38-23.38c2.34-2.34 6.14-2.34 8.49 0 2.34 2.34 2.34 6.14 0 8.49L270.4 120.6a5.991 5.991 0 0 1-8.48 0zm233.68 244.85-55.09-119.45c-.67-1.44-1.88-2.57-3.37-3.12s-3.14-.49-4.59.18l-51.09 23.56c-1.73.8-2.9 2.32-3.32 4.04l-5.48 2.29c-4.22 1.77-7.98 2.45-12.56 2.3-11.05-.38-19.8-3.08-29.06-5.93-9.93-3.06-20.2-6.23-33.13-6.23h-.22c-6.86.25-18.7 1.73-31.52 5.18-8.46-1.88-17-3.06-24.21-3.33h-.22c-12.93 0-23.2 3.17-33.13 6.23-9.26 2.85-18.01 5.55-29.06 5.93-4.58.16-8.33-.53-12.56-2.3l-5.48-2.29a5.982 5.982 0 0 0-3.32-4.04L93.27 231.1c-1.45-.67-3.1-.73-4.59-.18s-2.71 1.67-3.37 3.12L30.23 353.5c-.67 1.45-.73 3.1-.18 4.59s1.67 2.71 3.12 3.37l51.09 23.56c.81.38 1.67.55 2.51.55 2.27 0 4.44-1.29 5.45-3.49l1.71-3.72 28.7 15.9c-2.97 8.77-.96 18.87 6.01 25.84 4.73 4.73 11.04 7.33 17.76 7.33.68 0 1.35-.03 2.02-.09-.57 7.09 1.85 14.38 7.26 19.79 4.9 4.9 11.33 7.35 17.76 7.35 2.72 0 5.43-.44 8.03-1.32.59 5.5 2.99 10.85 7.2 15.06 4.9 4.9 11.33 7.34 17.76 7.34 3.23 0 6.46-.62 9.49-1.85.73 5.21 3.1 10.23 7.1 14.23 4.9 4.9 11.33 7.34 17.76 7.34s12.86-2.45 17.76-7.34l.65-.65 5.69 4.42c4.57 3.56 10 5.28 15.39 5.28 7.49 0 14.91-3.33 19.86-9.69 3.11-4 4.89-8.74 5.21-13.7 3.01 1.25 6.25 1.91 9.56 1.91 1.06 0 2.12-.07 3.19-.2 6.67-.84 12.61-4.2 16.71-9.48a25.05 25.05 0 0 0 5.21-17.29c.89.1 1.79.16 2.7.16 1.06 0 2.12-.07 3.19-.2 6.67-.84 12.61-4.2 16.71-9.48 4.16-5.35 5.8-11.86 5.12-18.12.53.03 1.06.07 1.59.07 1.06 0 2.12-.07 3.19-.2 6.67-.84 12.61-4.2 16.71-9.48 4.29-5.51 6.14-12.64 5.08-19.56-.1-.63-.22-1.25-.36-1.87l24.12-13.36 1.71 3.72a6.036 6.036 0 0 0 3.37 3.12c.67.25 1.37.37 2.08.37.86 0 1.72-.18 2.51-.55l51.09-23.56a5.982 5.982 0 0 0 2.95-7.96zM83.83 371.62l-40.2-18.54L93.7 244.52l40.2 18.54zm62.58 43.82c-3.52 0-6.81-1.36-9.28-3.82-2.46-2.46-3.82-5.76-3.82-9.27 0-3.52 1.36-6.81 3.82-9.28l20.27-20.27c5.11-5.11 13.44-5.11 18.55 0 2.46 2.46 3.82 5.76 3.82 9.28s-1.36 6.81-3.82 9.28l-20.27 20.27c-2.45 2.46-5.75 3.81-9.27 3.81zm17.76 23.22c-2.46-2.46-3.82-5.76-3.82-9.28s1.36-6.81 3.82-9.28l33.23-33.23c5.11-5.11 13.44-5.11 18.55 0 2.46 2.46 3.82 5.76 3.82 9.28s-1.36 6.81-3.82 9.28l-27.28 27.28-5.95 5.95c-2.46 2.46-5.76 3.82-9.28 3.82-3.51 0-6.8-1.35-9.27-3.82zm32.99 21.09c-5.11-5.11-5.11-13.44 0-18.55l34.39-34.39c2.46-2.46 5.76-3.82 9.28-3.82s6.81 1.36 9.28 3.82c2.46 2.46 3.82 5.76 3.82 9.28s-1.36 6.81-3.82 9.28l-27.07 27.07s0 .01-.01.01l-7.31 7.31c-5.12 5.1-13.44 5.1-18.56-.01zm34.35 19.72c-5.11-5.11-5.11-13.43 0-18.55l19.97-19.97c2.46-2.46 5.76-3.82 9.28-3.82s6.81 1.36 9.28 3.82c5.11 5.11 5.11 13.44 0 18.55l-19.97 19.97c-5.12 5.12-13.44 5.12-18.56 0zm59.15.48c-4.44 5.71-12.7 6.74-18.41 2.3l-4.5-3.5 10.77-10.77c2.76-2.76 4.74-6.01 5.94-9.47l3.89 3.03c2.75 2.14 4.5 5.24 4.94 8.73.44 3.5-.49 6.94-2.63 9.68zm89.1-76.02c-2.14 2.75-5.24 4.5-8.73 4.94s-6.93-.5-9.68-2.64l-3.15-2.45-51.89-40.34a6.01 6.01 0 0 0-8.42 1.05c-2.03 2.62-1.56 6.39 1.05 8.42l51.89 40.34c5.71 4.44 6.74 12.7 2.3 18.41-2.14 2.75-5.24 4.5-8.73 4.94s-6.93-.5-9.68-2.64l-4.34-3.37-51.41-39.98a6.01 6.01 0 0 0-8.42 1.05c-2.03 2.62-1.56 6.39 1.05 8.42l51.42 39.98c5.7 4.44 6.73 12.69 2.29 18.4-2.14 2.75-5.24 4.5-8.73 4.94s-6.93-.5-9.68-2.64l-21.91-17.04a24.97 24.97 0 0 0-6.49-11.28 24.96 24.96 0 0 0-14.36-7.11c1.15-2.91 1.75-6.04 1.75-9.27 0-6.72-2.6-13.03-7.33-17.76s-11.04-7.33-17.76-7.33c-3.23 0-6.37.61-9.28 1.76a24.902 24.902 0 0 0-7.1-14.36c-9.09-9.08-23.45-9.74-33.3-1.96a24.827 24.827 0 0 0-6.7-12.11c-9.79-9.79-25.73-9.79-35.52 0l-19.82 19.82-30.14-16.69 44.88-97.32 4.68 1.96c5.27 2.2 10.39 3.25 16 3.25.53 0 1.06-.01 1.6-.03 12.65-.44 22.58-3.5 32.18-6.46 9.47-2.92 18.41-5.67 29.49-5.69.3.01.62.03.93.05-14.14 6.97-26.41 17.06-31.07 31.41-6.05 18.67-6.04 31.03-6.03 48.14v2.92c0 1.62.66 3.17 1.82 4.3 5.67 5.5 12.45 8.41 19.62 8.41 16.72 0 24.02-12.71 30.46-23.92 6.24-10.87 11.63-20.26 24.56-20.26 4.53 0 9.16 1.47 12.37 3.93.07.06.15.11.22.16l97.02 67.41c2.55 1.77 4.24 4.56 4.74 7.83.6 3.71-.38 7.49-2.65 10.41zm8.64-24.71a22.464 22.464 0 0 0-3.84-3.36l-96.92-67.34c-5.3-4.01-12.42-6.31-19.54-6.31-19.88 0-28.25 14.57-34.97 26.28-6.37 11.1-10.75 17.9-20.05 17.9-3.9 0-7.1-1.64-9.44-3.44v-.21c-.02-17.19-.03-27.57 5.44-44.42 8.4-25.89 55.02-36.25 75.12-37.02 11.07.02 20.02 2.77 29.48 5.69 9.6 2.96 19.53 6.02 32.18 6.46 6.25.22 11.84-.81 17.6-3.22l4.68-1.96 44.88 97.32zm39.77-9.46L378.1 261.2l40.2-18.54 50.06 108.55z" fill="#941A20" opacity="1" data-original="#000000"></path></g></svg>