<svg xmlns="http://www.w3.org/2000/svg" version="1.1" xmlns:xlink="http://www.w3.org/1999/xlink" width="512" height="512" x="0" y="0" viewBox="0 0 512 512" style="enable-background:new 0 0 512 512" xml:space="preserve"><g><path d="M448.38 8H195.817c-25.624 0-46.471 20.847-46.471 46.471v61.188l-24.694 12.802c-4.764-11.942-13.485-21.719-24.401-27.9 12.005-8.571 19.853-22.605 19.853-38.446 0-26.039-21.184-47.223-47.223-47.223S25.658 36.076 25.658 62.115c0 15.838 7.845 29.869 19.845 38.44-16.91 9.581-28.353 27.731-28.353 48.514v119.705c0 10.493 8.537 19.03 19.03 19.03h73.403c10.494 0 19.031-8.537 19.031-19.03v-82.529l20.732-10.749v9.342c0 25.624 20.847 46.471 46.471 46.471h252.562c25.624 0 46.471-20.847 46.471-46.471V54.471C494.85 28.847 474.003 8 448.379 8zM41.658 62.115c0-17.216 14.007-31.223 31.224-31.223s31.223 14.007 31.223 31.223-14.007 31.223-31.223 31.223-31.224-14.007-31.224-31.223zm67.925 209.689H36.181c-1.643 0-3.03-1.388-3.03-3.03V149.069c0-21.908 17.823-39.731 39.731-39.731 18.982 0 35.388 13.543 39.008 32.204l2.037 10.503 47.217-24.48.022-.011 4.177-2.165c8.975-4.65 13.656 3.76 14.161 4.734.8 1.542 4.343 9.465-4.438 14.018l-62.451 32.378-19.466 10.092c-2.46 1.275-5.453 1.49-8.215.592-2.671-.869-4.791-2.645-5.97-5.002-1.16-2.321-1.499-4.805-.981-7.184a8.001 8.001 0 0 0-6.113-9.52c-4.315-.937-8.579 1.796-9.52 6.113-1.285 5.9-.468 12.202 2.304 17.745 3.109 6.22 8.555 10.858 15.332 13.062a27.064 27.064 0 0 0 8.368 1.324c4.225 0 8.416-.986 12.159-2.927l12.102-6.274v74.234c0 1.643-1.388 3.03-3.031 3.03zm369.268-86.967c0 16.802-13.669 30.471-30.471 30.471H195.817c-16.802 0-30.471-13.669-30.471-30.471V167.2l17.083-8.857c12.412-6.435 16.065-18.07 13.842-28.443l51.32-60.005a7.999 7.999 0 0 0-.881-11.279c-3.355-2.872-8.406-2.478-11.279.88l-47.559 55.608c-5.735-5.329-13.788-8.362-22.525-6.566V54.471c0-16.802 13.669-30.471 30.471-30.471H448.38c16.802 0 30.471 13.669 30.471 30.471zM264.814 54.073a8 8 0 0 1 8-8h72.876a8 8 0 0 1 0 16h-72.876a8 8 0 0 1-8-8zm156.934-.001a8 8 0 0 1-8 8h-31.731a8 8 0 0 1 0-16h31.731a8 8 0 0 1 8 8zM260.401 97.794a8 8 0 0 1 8-8H412.86a8 8 0 0 1 0 16H268.401a8 8 0 0 1-8-8zm-10.911 43.722a8 8 0 0 1 8-8h92.701a8 8 0 0 1 0 16H257.49a8 8 0 0 1-8-8zm171.37-.001a8 8 0 0 1-8 8h-29.22a8 8 0 0 1 0-16h29.22a8 8 0 0 1 8 8zm.888 43.723a8 8 0 0 1-8 8H301.744a8 8 0 0 1 0-16h112.004a8 8 0 0 1 8 8zm-147.31-.001a8 8 0 0 1-8 8h-30.841a8 8 0 0 1 0-16h30.841a8 8 0 0 1 8 8zm195.618 253.368h-12.487c-7.304-26.153-26.661-46.802-51.218-56.329 12.371-9.32 20.386-24.127 20.386-40.774 0-28.136-22.89-51.026-51.025-51.026s-51.026 22.89-51.026 51.026c0 16.646 8.015 31.453 20.386 40.773a85.347 85.347 0 0 0-21.77 12.393c-9.595-12.483-22.235-21.864-36.573-27.386 12.321-9.324 20.299-24.099 20.299-40.706 0-28.136-22.891-51.026-51.026-51.026s-51.025 22.89-51.025 51.026c0 16.606 7.977 31.381 20.297 40.704-14.355 5.528-27.007 14.924-36.607 27.43a85.356 85.356 0 0 0-21.775-12.401c12.364-9.316 20.374-24.117 20.374-40.755 0-28.126-22.882-51.008-51.008-51.008s-51.007 22.882-51.007 51.008c0 16.638 8.01 31.438 20.373 40.754-24.543 9.523-43.889 30.159-51.191 56.297H41.945c-13.672 0-24.794 11.123-24.794 24.793v25.929c0 8.092 6.584 14.675 14.676 14.675h448.348c8.092 0 14.676-6.583 14.676-14.675v-25.929c0-13.671-11.122-24.793-24.794-24.793zm-129.371-97.103c0-19.313 15.713-35.026 35.026-35.026s35.025 15.713 35.025 35.026-15.696 35.009-34.995 35.025h-.061c-19.299-.017-34.995-15.722-34.995-35.025zm35.026 51.026h.03c29.543.013 55.499 18.889 65.064 46.078H310.613c9.566-27.19 35.523-46.065 65.066-46.078h.031zm-154.736-65.951c0-19.313 15.712-35.026 35.025-35.026s35.026 15.712 35.026 35.026-15.688 35-34.979 35.025h-.095c-19.292-.026-34.978-15.728-34.978-35.025zm34.978 51.025.048.001.047-.001c22.229.015 42.58 10.428 55.558 28.135a84.464 84.464 0 0 0-17.754 32.869h-75.77a84.442 84.442 0 0 0-17.721-32.82c12.975-17.737 33.341-28.168 55.594-28.183zM101.25 341.554c0-19.303 15.704-35.008 35.007-35.008s35.008 15.705 35.008 35.008-15.688 34.99-34.977 35.006h-.061c-19.288-.017-34.976-15.714-34.976-35.006zm34.976 51.006h.061c29.524.013 55.465 18.875 65.029 46.045H71.196c9.564-27.17 35.506-46.032 65.03-46.045zm342.625 95.442H33.149v-24.604c0-4.849 3.945-8.793 8.794-8.793h18.768l.03.001.033-.001h390.452l.033.001.03-.001h18.767c4.849 0 8.794 3.945 8.794 8.793v24.604z" fill="#941A20" opacity="1" data-original="#000000"></path></g></svg>