<svg xmlns="http://www.w3.org/2000/svg" version="1.1" xmlns:xlink="http://www.w3.org/1999/xlink" width="512" height="512" x="0" y="0" viewBox="0 0 500 500" style="enable-background:new 0 0 512 512" xml:space="preserve" class=""><g><path fill-rule="evenodd" d="M437.143 307.866c-6.375 49.722-33.33 95.361-73.948 125.198a6.336 6.336 0 0 1-8.868-1.355 6.355 6.355 0 0 1 1.35-8.874c37.833-27.799 62.927-70.29 68.877-116.589.448-3.475 3.63-5.921 7.105-5.485 3.474.443 5.926 3.624 5.484 7.105zM153.577 431.709c-2.077 2.837-6.072 3.427-8.88 1.355-40.613-29.838-67.562-75.476-73.943-125.198a6.343 6.343 0 0 1 5.485-7.105c3.475-.436 6.668 2.01 7.111 5.485 5.939 46.299 31.044 88.79 68.866 116.589 2.831 2.08 3.44 6.054 1.361 8.874zm184.754-304.875a6.344 6.344 0 0 1 8.679-2.286c18.155 10.614 34.272 24.157 47.907 40.245 3.513 4.145.513 10.448-4.836 10.448a6.35 6.35 0 0 1-4.853-2.24 172.307 172.307 0 0 0-44.622-37.483 6.342 6.342 0 0 1-2.275-8.684zm-225.35 37.959c13.629-16.088 29.746-29.631 47.907-40.245a6.35 6.35 0 0 1 8.684 2.286c1.769 3.021.747 6.915-2.286 8.684a172.406 172.406 0 0 0-44.622 37.483c-2.27 2.683-6.292 2.991-8.949.735a6.341 6.341 0 0 1-.734-8.943zM226.21 52.208a30.542 30.542 0 0 1 22.963 10.413 6.342 6.342 0 0 0 9.552 0 30.548 30.548 0 0 1 22.974-10.413c16.84 0 30.533 13.698 30.533 30.539 0 28.873-30.246 64.006-58.28 77.647-28.046-13.641-58.291-48.775-58.291-77.647-.001-16.841 13.703-30.539 30.549-30.539zm25.174 120.994a6.341 6.341 0 0 0 5.123 0c32.365-14.284 68.423-54.943 68.423-90.455 0-23.842-19.396-43.232-43.232-43.232a43.215 43.215 0 0 0-27.747 10.074 43.235 43.235 0 0 0-27.741-10.074c-23.847 0-43.249 19.39-43.249 43.232 0 35.512 36.064 76.171 68.423 90.455zm51.635 208.113a.57.57 0 0 1 .5.293l8.242 14.864-.218.758-67.682 37.557-8.799-15.852zm-8.788 49.498-8.518-4.727-18.672 10.367 18.391 10.201c4.371 2.424 9.896.844 12.314-3.527 2.436-4.37.845-9.896-3.515-12.314zm-71.772 15.841c-4.359 2.424-9.891.844-12.314-3.527-2.424-4.371-.844-9.896 3.527-12.314l10.287-5.715 8.799 15.852zm-26.11-49.424 25.829 14.336 18.69-10.362-35.719-19.815a.584.584 0 0 0-.775.218l-8.242 14.864a.566.566 0 0 0 .217.759zm-15.272-49.027h-22.239v-13.21h23.87a6.343 6.343 0 0 0 4.491-1.855l23.698-23.709v22.394zm-52.468-6.605c0 3.636 2.964 6.605 6.611 6.605h10.919v-13.21H135.22c-3.647 0-6.611 2.958-6.611 6.605zm106.865-53.438c-6.548 0-11.878 5.336-11.878 11.884v77.067l30.355 16.829 30.349-16.829v-77.067c0-6.548-5.324-11.884-11.872-11.884zm18.477-51.807c10.787 0 19.557 8.77 19.557 19.557 0 10.781-8.771 19.551-19.557 19.551s-19.562-8.771-19.562-19.551c0-10.787 8.776-19.557 19.562-19.557zm71.232 98.64h23.882v13.21H326.82L297 331.823v-22.394l23.698 23.709a6.36 6.36 0 0 0 4.485 1.855zm54.105 6.605a6.61 6.61 0 0 0-6.605-6.605h-10.919v13.21h10.919c3.641 0 6.605-2.969 6.605-6.605zm-57.16 18.512a6.376 6.376 0 0 0 3.056.793h47.5c10.643 0 19.304-8.667 19.304-19.304 0-10.649-8.661-19.298-19.304-19.298h-44.869l-32.675-32.687a6.317 6.317 0 0 0-.798-.666c-3.113-6.117-8.707-10.769-15.445-12.613 4.56-5.571 7.306-12.682 7.306-20.424 0-17.788-14.462-32.256-32.25-32.256-17.782 0-32.261 14.468-32.261 32.256 0 7.742 2.751 14.853 7.323 20.424-6.749 1.844-12.349 6.496-15.456 12.613a6.613 6.613 0 0 0-.798.666L180.078 322.3H135.22c-10.649 0-19.31 8.65-19.31 19.298 0 10.637 8.661 19.304 19.31 19.304h47.488a6.296 6.296 0 0 0 3.056-.793l25.134-13.802v23.778c-6.324-3.233-14.147-.907-17.621 5.359l-8.248 14.87c-3.544 6.393-1.229 14.474 5.164 18.018l18.902 10.499-1.58.879c-16.825 9.331-14.102 34.581 4.572 39.923 5.548 1.587 11.448.951 16.536-1.878l25.329-14.049 25.324 14.049c10.397 5.765 23.71 2.121 29.585-8.472 5.813-10.493 2.016-23.761-8.472-29.574l-1.585-.879 18.902-10.499c6.397-3.549 8.717-11.62 5.169-18.018l-8.254-14.87c-3.475-6.266-11.303-8.592-17.621-5.359v-23.778zm137.938-87.929h-85.884a1.27 1.27 0 0 1-1.252-1.252v-42.755l37.845 19.942v1.246a6.347 6.347 0 0 0 6.352 6.347 6.346 6.346 0 0 0 6.347-6.347v-1.246l37.85-19.942v42.755c0 .678-.581 1.252-1.258 1.252zm-56.161-74.517c0-.454.379-.839.833-.839h24.778c.448 0 .827.385.827.839v6.037h-26.438zm19.126 36.34c-2.091-5.35-9.711-5.369-11.809 0l-33.41-17.604h78.624zm37.035-30.303c7.696 0 13.957 6.26 13.957 13.951v53.277c0 7.691-6.261 13.945-13.957 13.945h-85.884c-7.691 0-13.951-6.255-13.951-13.945v-53.277c0-7.691 6.261-13.951 13.951-13.951h17.024v-6.037c0-7.467 6.065-13.532 13.532-13.532h24.778c7.455 0 13.526 6.065 13.526 13.532v6.037zM38.671 267.253v-4.922h108.197v4.922a4.935 4.935 0 0 1-4.928 4.928H43.593a4.925 4.925 0 0 1-4.922-4.928zm17.632-67.113c0-.471.419-.89.89-.89h71.151c.471 0 .89.419.89.89v49.492H56.303zm103.259 67.113c0 9.712-7.909 17.621-17.621 17.621H43.593c-9.712 0-17.616-7.909-17.616-17.621v-11.275a6.342 6.342 0 0 1 6.347-6.347h11.28V200.14c0-7.495 6.094-13.589 13.589-13.589h71.151c7.49 0 13.589 6.094 13.589 13.589v49.492h11.28a6.342 6.342 0 0 1 6.347 6.347v11.274z" clip-rule="evenodd" fill="#941A20" opacity="1" data-original="#000000"></path></g></svg>