<?xml version="1.0" encoding="UTF-8"?>
<svg id="Layer_1" data-name="Layer 1" xmlns="http://www.w3.org/2000/svg" viewBox="0 0 284 136.54">
  <defs>
    <style>
      .cls-1, .cls-2, .cls-3 {
        fill-rule: evenodd;
      }

      .cls-1, .cls-4 {
        fill: #fff;
      }

      .cls-2, .cls-5 {
        fill: #a51e22;
      }
    </style>
  </defs>
  <g id="Layer38">
    <g id="Layer39">
      <path id="Layer40" d="M273.1,11.3h-2v-.7h5v.7h-2.1v6h-.9v-6Z"/>
    </g>
    <g id="Layer41">
      <path id="Layer42" d="M282.5,14.3c0-.9-.1-2.1-.1-2.9h0c-.2.8-.5,1.6-.8,2.6l-1.2,3.3h-.7l-1.1-3.2c-.3-.9-.6-1.8-.8-2.6h0c0,.8-.1,2-.1,3l-.2,2.9h-.8l.5-6.7h1.1l1.2,3.3c.3.8.5,1.6.7,2.3h0c.2-.7.4-1.4.7-2.3l1.2-3.3h1.1l.4,6.7h-.8l-.3-3.1h0Z"/>
    </g>
  </g>
  <g>
    <g id="Layer">
      <path id="Layer1" class="cls-5" d="M148.4,39.3c0,5.7-4.9,10.3-10.9,10.3H11.3c-6,0-10.9-4.6-10.9-10.3V10.6C.4,4.9,5.3.3,11.3.3h126.2c6,0,10.9,4.6,10.9,10.3v28.7Z"/>
    </g>
    <g id="Layer2">
      <path id="Layer3" d="M133.6,20c0-6,4.9-10.9,10.9-10.9h112.4c6,0,10.9,4.9,10.9,10.9v27.6c0,6-4.9,10.9-10.9,10.9h-112.5c-6,0-10.9-4.9-10.9-10.9l.1-27.6Z"/>
    </g>
    <g id="Layer4">
      <path id="Layer5" class="cls-4" d="M42.9,33.7v-15.3c0-1,.4-1.9,1.1-2.6.7-.7,1.6-1.1,2.6-1.1h.9c1,0,1.9.4,2.6,1.1.7.7,1.1,1.6,1.1,2.6v18.4c0,1.1-.3,2-1,2.6-.9,1-1.8,1.4-2.8,1.4h-29.1c-1.1,0-2-.4-2.8-1.3-.8-.7-1.2-1.7-1.2-2.8v-18.5c0-1,.4-1.9,1.1-2.6.7-.7,1.6-1.1,2.6-1.1h.9c1,0,1.9.4,2.6,1.1s1.1,1.6,1.1,2.6v15.3h6v-15.3c0-1,.4-1.9,1.1-2.6.7-.7,1.6-1.1,2.6-1.1h1c1,0,1.9.4,2.6,1.1.7.7,1.1,1.6,1.1,2.6v15.3l5.9.2h0Z"/>
    </g>
    <g id="Layer6">
      <path id="Layer7" class="cls-2" d="M37.9,33.7v-.9h-1.1l1.1.9ZM37.9,32.8h4v-14.4c0-1.3.5-2.4,1.4-3.3.9-.9,2-1.4,3.3-1.4h.9c1.3,0,2.4.5,3.3,1.4.9.9,1.4,2,1.4,3.3v18.4c0,1.4-.4,2.5-1.2,3.2-1,1.1-2.2,1.7-3.5,1.7h-29.2c-1.4,0-2.6-.6-3.5-1.6l.1.1c-1-1-1.5-2.1-1.5-3.5V15.4c0-1.3.4.5,1.3-.5.9-1,2-1.4,3.3-1.4h.9c1.3,0,2.4.5,3.3,1.4.8.9,1.3,2,1.3,3.3v14.4h4.2v-14.4c0-1.3.4-2.4,1.3-3.3.9-.9,2-1.3,3.3-1.3h1c1.3,0,2.4.5,3.3,1.4.8.9,1.3,2,1.3,3.3v14.5ZM27.7,33.5l.9-.9h-.9v.9ZM22.6,32.7l.9.9v-.9h-.9ZM41.9,33.7l.9-.9h-.9v.9ZM44,33.7v1h-7.8v-16.2c0-.8-.3-1.4-.8-2-.6-.5-1.2-.8-2-.8h-1c-.8,0-1.5.3-2,.8s-.8,1.2-.8,2v16.2h-7.8v-16.2c0-.8-.2-1.5-.8-2-.6-.5-1.2-.8-2-.8h-.9c-.8,0-1.5.2-2,.8s-.8,1.2-.8,2v18.4c0,.8.3,1.5.9,2.1.6.7,1.3,1,2.1,1h29.1c.8,0,1.5-.4,2.2-1.2.5-.4.7-1.1.7-2v-18.4c0-.8-.3-1.4-.8-2-.6-.5-1.2-.8-2-.8h-.9c-.8,0-1.5.2-2,.8s-.8,1.2-.8,2v15.3s.2,0,.2,0Z"/>
    </g>
    <g id="Layer8">
      <path id="Layer9" class="cls-1" d="M88.1,33.7c.7.7,1.1,1.6,1.1,2.6v.9c0,1-.4,1.9-1.1,2.6-.7.7-1.6,1.1-2.6,1.1h-25.6c-1.1,0-2-.4-2.7-1.2-.8-.7-1.2-1.7-1.2-2.7v-18.1c0-1.1.4-2,1.2-2.7.7-.8,1.6-1.2,2.7-1.2h25.6c1.1,0,2,.4,2.7,1.2.8.7,1.2,1.6,1.2,2.7v8.6c0,.7-.2,1.3-.5,1.9-.6,1.3-1.7,1.9-3.5,1.9h-21.4v1.6h21.4c1.1-.2,1.9.1,2.7.8ZM64.1,24.5h17.1v-1.5h-17.1v1.5Z"/>
    </g>
    <g id="Layer10">
      <path id="Layer11" class="cls-2" d="M63.2,25.5v-3.5h18.9v3.4h-18.9v.1ZM64.1,23.9h.2l.7.7v-.7h15.3v.7l.7-.7h.2l-.1-.1.1-.1h-.2l-.7-.7v.7h-15.3v-.7l-.7.7h-.2l.1.1-.1.1ZM64.2,23.8l.1-.1h.7v.2h-.7l-.1-.1ZM80.3,23.6h.7l.1.1-.1.2h-.7v-.3Z"/>
      <path id="Layer12" class="cls-2" d="M85.5,31.6h-20.5v-.6l-.7.7h-.2l.1.1-.1.1h.2l.7.7v-.7h20.5c.4,0,.7,0,1-.1-.3-.1-.6-.2-1-.2ZM86.5,31.8c.8.2,1.6.6,2.4,1.3.8.8,1.3,1.9,1.3,3.2v.7c0,1.2-.4,2.3-1.3,3.2-.8.9-1.9,1.4-3.2,1.4h-25.6c-1.4,0-2.5-.5-3.3-1.5-1-.9-1.5-2-1.5-3.3v-18.2c0-1.3.5-2.4,1.4-3.3.9-1.1,2-1.6,3.4-1.6h25.6c1.3,0,2.5.5,3.3,1.4,1,.9,1.4,2,1.4,3.4v8.6c0,.8-.3,1.6-.7,2.3v-.1c-.3,1.1-1.3,2.2-3.2,2.5h0ZM89,15.1l.1.1-.1-.1s0,.05,0,0ZM56.7,15.3l.1-.1c0,.07-.03.1-.1.1h0ZM56.8,40.2l-.1-.2c0,.07.03.13.1.2t0,0ZM65,31.9h-.7l-.1-.1.1-.1h.7v.2ZM85.4,33.7h-22.3v-3.4h22.3c1.7,0,2.3-.8,2.6-1.4v-.2c.3-.4.4-.9.4-1.4v-8.6c0-.9-.3-1.6-.9-2.1-.6-.6-1.3-.9-2.1-.9h-25.6c-.9,0-1.6.3-2.1.9v.1c-.6.6-.9,1.3-.9,2.1v18.1c0,.9.3,1.6.9,2.1.6.6,1.2.9,2.1.9h25.6c.8,0,1.5-.3,2-.8s.8-1.1.8-1.9v-.9c0-.7-.3-1.4-.8-1.9-.5-.6-1.2-.9-2-.7Z"/>
    </g>
    <g id="Layer13">
      <path id="Layer14" class="cls-1" d="M126.6,39.5c-.7.9-1.7,1.3-2.8,1.3h-26.2c-1.1,0-2-.4-2.8-1.3-.8-.7-1.2-1.6-1.2-2.7V8.4c0-1,.4-1.9,1.1-2.6s1.6-1.1,2.6-1.1h1c1,0,1.9.4,2.6,1.1s1.1,1.6,1.1,2.6v6.2h21.9c1.6,0,2.8.6,3.4,1.8.4.6.6,1.3.6,2v18.3c0,1.1-.5,2.1-1.3,2.8h0ZM101.9,32.8h17.6v-9.8h-17.6v9.8Z"/>
    </g>
    <g id="Layer15">
      <path id="Layer16" class="cls-2" d="M101,33.7v-11.7h19.4v11.6h-19.4v.1ZM101.9,23.9h.9v-.9l-.9.9ZM119.5,23.9l-.9-.9v.9h.9ZM118.6,32.8l.9-.9h-.9v.9ZM101.9,31.9l.9.9v-.9h-.9ZM102.8,31.9h15.8v-8h-15.8v8Z"/>
      <path id="Layer17" class="cls-2" d="M127.2,40c-1,1.1-2.1,1.5-3.4,1.5h-26.2c-1.4,0-2.6-.6-3.5-1.5-1-.9-1.4-2-1.4-3.3V8.3c0-1.3.4-2.4,1.3-3.3s2-1.4,3.3-1.4h1c1.3,0,2.4.5,3.3,1.4.8.9,1.3,2,1.3,3.3v5.3h21c2.5,0,3.7,1.3,4.2,2.3.5.8.7,1.6.7,2.5v18.3c0,1.4-.5,2.5-1.6,3.3ZM102,13.6l.9.9v-.9h-.9ZM94.2,40h0s-.05,0,0,0h0ZM127.3,40h0s-.05,0,0,0c-.1,0,0,0,0,0ZM125.9,38.8c.8-.6,1.1-1.3,1.2-2.1v-18.2c0-.6-.2-1.1-.5-1.6s-.9-1.3-2.6-1.3h-22.8v-7.2c0-.8-.3-1.4-.8-2-.6-.5-1.2-.8-2-.8h-1c-.8,0-1.5.2-2,.8s-.8,1.2-.8,2v28.3c0,.9.3,1.5.9,2.1.6.7,1.2,1,2.1,1h26.2c.8,0,1.5-.3,2.1-1h0Z"/>
    </g>
    <g id="Layer18">
      <path id="Layer19" class="cls-4" d="M141.9,45.7v-.9c0-1,.4-1.9,1.1-2.6.7-.7,1.6-1.1,2.6-1.1h21.4v-1.5h-21.4c-1.7,0-2.9-.6-3.5-1.9-.4-.6-.5-1.2-.5-1.9v-8.6s.2-.5.5-1.5c.2-.6.4-1,.7-1.2.7-.8,1.7-1.2,2.8-1.2h25.6c1,0,1.9.4,2.6,1.1.7.7,1.1,1.6,1.1,2.6v.9c0,1-.4,1.9-1.1,2.6-.7.7-1.6,1.1-2.6,1.1h-21.4v1.6h21.3c1.7,0,2.9.6,3.4,1.9.4.6.5,1.2.5,1.9v8.6s-.2.5-.5,1.5c-.2.6-.4,1-.8,1.3-.7.8-1.6,1.2-2.7,1.2h-25.6c-1,0-1.8-.3-2.5-1.1-.6-1-1-1.8-1-2.8h0Z"/>
    </g>
    <g id="Layer20">
      <path id="Layer21" class="cls-3" d="M141.2,45.7v-.9c0-1.2.4-2.3,1.3-3.2.5-.6,1.2-1,1.9-1.2-1.7-.4-2.6-1.5-3-2.4h0c-.4-.8-.6-1.6-.6-2.4v-8.8l.1-.2s.1-.2.5-1.4c.2-.8.6-1.3,1-1.7l-.1.1c.9-1,2-1.5,3.4-1.5h25.6c1.2,0,2.3.5,3.2,1.4.8.9,1.3,2,1.3,3.2v.9c0,1.2-.4,2.3-1.3,3.2-.6.7-1.4,1.1-2.2,1.3,1.9.3,2.8,1.5,3.2,2.4v-.1c.4.7.6,1.5.6,2.3v8.8l-.1.1s-.2.4-.5,1.4c-.2.7-.5,1.3-.9,1.6-.9,1-2,1.5-3.4,1.5h-25.6c-1.2.1-2.3-.4-3.2-1.3-.9-.8-1.4-2-1.2-3.1ZM171.2,32h-20.4v-.7l-.7.7h-.2l.1.1-.1.1h.2l.7.7v-.7h20.5c.4,0,.7,0,1-.1-.3,0-.7-.1-1.1-.1ZM145.7,40.5h20.5v.5l.6-.6h.3l-.2-.2.2-.1h-.3l-.6-.6v.6h-20.5c-.4,0-.9.1-1.3.2.4.1.8.2,1.3.2ZM150.8,32.2h-.7l-.1-.1.1-.1h.7v.2ZM166.2,40.2h.6l.1.1-.1.2h-.6v-.3ZM143.7,48c.6.5,1.2.8,1.9.8h25.6c.8,0,1.5-.3,2.1-1,.2-.2.4-.5.5-.9.2-.8.3-1.1.4-1.4v-8.5c0-.5-.1-1-.4-1.4v-.2c-.3-.6-.8-1.4-2.6-1.4h-22.2v-3.4h22.3c.7,0,1.4-.2,1.9-.8.5-.5.8-1.1.8-1.9v-.9c0-.7-.3-1.3-.8-1.9-.5-.5-1.1-.8-1.9-.8h-25.6c-.8,0-1.5.3-2.1.9-.2.1-.3.4-.5.9-.3.7-.4,1.1-.5,1.3v8.6c0,.5.1,1,.4,1.4.2.6.8,1.4,2.6,1.4h22.3v3.2h-22.3c-.8,0-1.5.3-2,.8s-.8,1.1-.8,1.9v.9c0,.7.3,1.4.9,2.4h0ZM142.6,27.4v.2-.2h0ZM142.6,27.5c-.1.1-.1.2-.1.2l.1-.2ZM174.2,45.7l.1-.4-.1.2v.2Z"/>
    </g>
    <g id="Layer22">
      <path id="Layer23" class="cls-4" d="M188.4,30.8h-8.6c-1,0-1.9-.3-2.6-1-.7-.7-1.1-1.4-1.1-2.3v-1.5c0-.8.4-1.5,1.1-2.1.7-.6,1.6-.9,2.6-.9h8.6l.1-6.1c0-.8.4-1.6,1.1-2.5.8-.8,1.6-1.2,2.6-1.2h.9c1,0,1.8.4,2.6,1.3.7.8,1.1,1.6,1.1,2.4v6.1h9.3c1,0,1.9.3,2.6.9.7.6,1.1,1.3,1.1,2.1v1.4c0,.8-.4,1.6-1.1,2.3-.7.7-1.6,1-2.6,1h-9.3v14.9c0,.9-.4,1.7-1.1,2.5-.8.9-1.7,1.3-2.6,1.3h-.9c-1,0-1.9-.4-2.6-1.3-.7-.8-1.1-1.6-1.1-2.4l-.1-14.9h0Z"/>
    </g>
    <g id="Layer24">
      <path id="Layer25" class="cls-3" d="M187.5,45.7l-.1-14h-7.7c-1.2,0-2.3-.5-3.2-1.3s-1.4-1.8-1.4-2.9v-1.5c0-1.1.5-2.1,1.4-2.8.9-.7,2-1.1,3.2-1.1h7.7l.1-5.2c0-1.1.5-2.1,1.4-3.1,1-1,2.1-1.5,3.3-1.5h.9c1.2,0,2.3.5,3.3,1.6.9,1,1.3,2,1.3,3v5.2h8.4c1.2,0,2.3.4,3.2,1.1.9.8,1.4,1.7,1.4,2.8v1.4c0,1.1-.5,2-1.4,2.9-.9.8-2,1.2-3.2,1.2h-8.4v14c0,1.1-.5,2.2-1.4,3.1-.9,1.1-2.1,1.6-3.3,1.6h-.9c-1.2,0-2.3-.5-3.3-1.6-.9-.9-1.3-1.9-1.3-2.9ZM197.7,30.6l-.9.9h.9v-.9ZM196.8,22.1l.9.9v-.9h-.9ZM187.4,23l.9-.9h-.9v.9ZM188.3,31.6l-.9-.9v.9h.9ZM189.2,29.9v15.8c0,.6.3,1.2.9,1.8.6.7,1.3,1,2,1h.9c.7,0,1.4-.3,2-1,.6-.6.9-1.2.9-1.8v-15.8h10.2c.8,0,1.4-.3,2-.8.5-.5.8-1,.8-1.6v-1.5c0-.4-.1-.9-.8-1.4-.6-.5-1.3-.7-2.1-.7h-10.2v-7c0-.6-.3-1.2-.8-1.8-.6-.7-1.2-1-1.9-1h-.9c-.7,0-1.3.3-1.9.9-.6.7-.9,1.3-.9,1.9l-.1,6.1v1h-9.5c-.8,0-1.5.3-2.1.7-.6.6-.7,1.1-.7,1.4v1.4c0,.6.3,1.1.8,1.6.6.5,1.2.8,2,.8h9.4Z"/>
    </g>
    <g id="Layer26">
      <path id="Layer27" class="cls-4" d="M220.2,45.7c0,1-.4,1.9-1.1,2.7-.7.8-1.6,1.1-2.6,1.1h-.9c-1,0-1.9-.4-2.7-1.1-.7-.7-1.1-1.6-1.1-2.7v-18.7c0-1,.4-1.9,1.1-2.7.7-.7,1.6-1.1,2.7-1.1h.9c1,0,1.9.4,2.6,1.1.7.7,1.1,1.6,1.1,2.7v18.7Z"/>
    </g>
    <g id="Layer28">
      <path id="Layer29" class="cls-3" d="M221.1,45.7c0,1.3-.5,2.4-1.4,3.3-.9.9-2,1.4-3.3,1.4h-.9c-1.3,0-2.4-.5-3.3-1.4-.9-.9-1.4-2-1.4-3.3v-18.7c0-1.3.5-2.4,1.4-3.3s2-1.4,3.3-1.4h.9c1.3,0,2.4.5,3.3,1.4.9.9,1.4,2,1.4,3.3v18.7ZM219.3,27c0-.8-.2-1.5-.8-2s-1.2-.8-2-.8h-.9c-.8,0-1.5.3-2,.8s-.8,1.2-.8,2v18.6c0,.8.3,1.4.8,2,.5.5,1.2.8,2,.8h.9c.8,0,1.4-.2,2-.8.5-.5.8-1.2.8-2v-18.6Z"/>
    </g>
    <g id="Layer30">
      <path id="Layer31" class="cls-4" d="M254.9,42.2l-8-6,8-6c.8-.6,1.3-1.4,1.5-2.5.2-1-.1-1.9-.7-2.8l-.6-.8c-.6-.8-1.4-1.3-2.5-1.4s-2,.1-2.8.7l-10,7.4-10-7.4c-.8-.6-1.8-.9-2.8-.7-1,.2-1.8.6-2.5,1.4l-.6.8c-.6.8-.9,1.8-.7,2.8.1,1,.6,1.8,1.5,2.5l8,6-8,6c-.8.6-1.3,1.5-1.5,2.5-.1,1,.1,2,.7,2.8l.6.8c.6.8,1.5,1.3,2.5,1.5,1,.1,2-.1,2.8-.7l10-7.4,10,7.4c.8.6,1.8.9,2.8.7,1-.1,1.8-.6,2.5-1.5l.6-.8c.6-.8.8-1.7.7-2.8-.2-1-.7-1.9-1.5-2.5Z"/>
    </g>
    <g id="Layer32">
      <path id="Layer33" class="cls-3" d="M257.4,44.7c.2,1.2-.1,2.4-.9,3.4l-.6.8c-.8,1-1.8,1.6-3.1,1.8s-2.5-.1-3.5-.9l-9.4-7-9.4,7c-1.1.8-2.2,1.1-3.5.9-1.3-.2-2.3-.8-3.1-1.8l-.6-.8c-.8-1-1.1-2.1-.9-3.4.2-1.3.8-2.3,1.8-3.1l7.1-5.3-7.1-5.3c-1-.8-1.6-1.9-1.8-3.1s.1-2.4.9-3.4l.6-.8c.7-1,1.7-1.6,3-1.8,1.3-.2,2.5.1,3.5.9l9.4,7,9.4-7c1.1-.8,2.3-1.1,3.5-.9s2.2.8,3,1.8l.6.8c.8,1,1.1,2.1.9,3.4-.1,1.3-.8,2.3-1.8,3.1l-7.1,5.3,7.1,5.2c1,.7,1.7,1.7,2,3.2h0ZM239.2,30.1h1.1l-.6-.4-.5.4ZM240.4,42.3h-1.1l.6.4.5-.4ZM254.4,43l-8-6-1-.7,1-.7,8-6c.6-.5,1-1.1,1.1-1.9.2-.8,0-1.5-.5-2.1l-.6-.8c-.5-.6-1.1-1-1.9-1.1s-1.4.1-2.1.6l-10,7.4-.5.4-.5-.4-10-7.4c-.6-.5-1.3-.7-2.1-.6s-1.4.5-1.9,1.1l-.6.8c-.5.6-.7,1.3-.6,2.1.1.8.5,1.4,1.1,1.9l8,6,1,.7-1,.7-8,5.9c-.6.5-1,1.1-1.1,1.9-.1.8,0,1.5.5,2.1l.6.8c.5.6,1.1,1,1.9,1.1.8.1,1.5-.1,2.1-.6l10-7.4.5-.4.5.4,10,7.5c.6.4,1.3.6,2.1.5s1.4-.5,1.9-1.1l.6-.8c.4-.6.6-1.3.5-2.1s-.4-1.5-1-1.8Z"/>
    </g>
    <g id="Layer34">
      <path id="Layer35" class="cls-4" d="M220.2,19.5c0,1-.4,1.9-1.1,2.7-.7.7-1.6,1.1-2.6,1.1h-.9c-1,0-1.9-.4-2.7-1.1s-1.1-1.6-1.1-2.7v-2.3c0-1,.4-1.9,1.1-2.7.7-.7,1.6-1.1,2.7-1.1h.9c1,0,1.9.4,2.6,1.1s1.1,1.6,1.1,2.7v2.3Z"/>
    </g>
    <g id="Layer36">
      <path id="Layer37" class="cls-3" d="M221.1,19.5c0,1.3-.5,2.4-1.4,3.3-.9,1-2,1.4-3.3,1.4h-.9c-1.3,0-2.4-.5-3.3-1.4-.9-.9-1.4-2-1.4-3.3v-2.3c0-1.3.5-2.4,1.4-3.3.9-.9,2-1.4,3.3-1.4h.9c1.3,0,2.4.5,3.3,1.4.9.9,1.4,2,1.4,3.3v2.3ZM219.3,17.1c0-.8-.2-1.5-.8-2s-1.2-.8-2-.8h-.9c-.8,0-1.5.3-2,.8s-.8,1.2-.8,2v2.3c0,.8.2,1.4.8,2,.5.5,1.2.8,2,.8h.9c.8,0,1.4-.2,2-.8.5-.5.8-1.2.8-2v-2.3Z"/>
    </g>
    <g id="Layer43">
      <path id="Layer44" d="M17.5,72.2v20.4h-2.3v-20.4h2.3Z"/>
      <path id="Layer45" class="cls-3" d="M26.8,92.8c-2.5,0-4.2-.5-5.3-1.5-1.1-1-1.6-2.6-1.6-4.9v-2.3c0-2.2.5-3.8,1.6-4.7,1.1-.9,2.8-1.4,5.3-1.4h4.9c2.4,0,4.2.5,5.3,1.4,1.1.9,1.6,2.5,1.6,4.7v2.3c0,2.3-.5,3.9-1.6,4.9s-2.8,1.5-5.3,1.5h-4.9ZM27.4,90.7h3.7c2.1,0,3.5-.3,4.2-.9s1-1.8,1-3.6v-1.7c0-1.7-.3-2.9-1-3.5s-2.1-.9-4.2-.9h-3.7c-2.1,0-3.5.3-4.1.9-.7.6-1,1.8-1,3.5v1.7c0,1.8.3,2.9,1,3.6.6.5,2,.9,4.1.9Z"/>
      <path id="Layer46" class="cls-3" d="M47.2,92.8c-2.5,0-4.2-.5-5.3-1.5s-1.6-2.6-1.6-4.9v-2.3c0-2.2.5-3.8,1.6-4.7,1.1-.9,2.8-1.4,5.3-1.4h4.9c2.4,0,4.2.5,5.3,1.4s1.6,2.5,1.6,4.7v2.3c0,2.3-.5,3.9-1.6,4.9s-2.8,1.5-5.3,1.5h-4.9ZM47.8,90.7h3.7c2.1,0,3.5-.3,4.2-.9s1-1.8,1-3.6v-1.7c0-1.7-.3-2.9-1-3.5s-2.1-.9-4.2-.9h-3.7c-2.1,0-3.5.3-4.1.9-.7.6-1,1.8-1,3.5v1.7c0,1.8.3,2.9,1,3.6.6.5,2,.9,4.1.9Z"/>
      <path id="Layer47" d="M63.8,72.2v11.2h1.5l8-5.3h3.6l-9.6,6.3,11.4,8.1h-3.5l-9.9-6.9h-1.4v6.9h-2.3v-20.3h2.2Z"/>
      <path id="Layer48" class="cls-3" d="M107.1,92.3c0,1.8-.6,3.1-1.7,4s-2.9,1.3-5.1,1.3h-4.2c-2.2,0-3.9-.4-5-1.2-.5-.4-1-.9-1.3-1.5s-.4-1.3-.4-2.1h2.3c0,.9.4,1.6,1.1,2s2,.6,3.7.6h3.6c1.9,0,3.2-.2,3.9-.7.7-.5,1-1.3,1-2.6v-2.3c-.5.7-1.1,1.2-1.7,1.6s-1.5.5-2.7.5h-4.5c-2.4,0-4.2-.5-5.2-1.4-1.1-.9-1.6-2.5-1.6-4.7v-1.7c0-2.1.5-3.7,1.6-4.6s2.8-1.4,5.3-1.4h3.2c1.9,0,3.2.2,4,.5s1.3.9,1.8,1.7v-2.1h2.1v14.1h-.2ZM96.4,89.8h3.6c1.9,0,3.2-.3,3.9-.8.7-.5,1-1.5,1-2.8v-2.4c0-1.4-.3-2.3-1-2.8-.3-.3-.8-.5-1.5-.6-.6-.1-1.4-.2-2.4-.2h-3.6c-1.9,0-3.2.3-3.9.8-.7.5-1,1.5-1,2.9v2.4c0,1.4.3,2.3,1,2.8s2,.7,3.9.7Z"/>
      <path id="Layer49" class="cls-3" d="M115.8,92.8c-2.5,0-4.2-.5-5.3-1.5-1.1-1-1.6-2.6-1.6-4.9v-2.3c0-2.2.5-3.8,1.6-4.7,1.1-.9,2.8-1.4,5.3-1.4h4.9c2.4,0,4.2.5,5.3,1.4,1.1.9,1.6,2.5,1.6,4.7v2.3c0,2.3-.5,3.9-1.6,4.9s-2.8,1.5-5.3,1.5h-4.9ZM116.4,90.7h3.7c2.1,0,3.5-.3,4.2-.9s1-1.8,1-3.6v-1.7c0-1.7-.3-2.9-1-3.5s-2.1-.9-4.2-.9h-3.7c-2.1,0-3.5.3-4.1.9-.7.6-1,1.8-1,3.5v1.7c0,1.8.3,2.9,1,3.6.6.5,2,.9,4.1.9Z"/>
      <path id="Layer50" class="cls-3" d="M136.2,92.8c-2.5,0-4.2-.5-5.3-1.5s-1.6-2.6-1.6-4.9v-2.3c0-2.2.5-3.8,1.6-4.7,1.1-.9,2.8-1.4,5.3-1.4h4.9c2.4,0,4.2.5,5.3,1.4s1.6,2.5,1.6,4.7v2.3c0,2.3-.5,3.9-1.6,4.9s-2.8,1.5-5.3,1.5h-4.9ZM136.8,90.7h3.7c2.1,0,3.5-.3,4.2-.9s1-1.8,1-3.6v-1.7c0-1.7-.3-2.9-1-3.5s-2.1-.9-4.2-.9h-3.7c-2.1,0-3.5.3-4.1.9-.7.6-1,1.8-1,3.5v1.7c0,1.8.3,2.9,1,3.6.6.5,2,.9,4.1.9Z"/>
      <path id="Layer51" class="cls-3" d="M160.2,92.8h-3.8c-2.5,0-4.2-.5-5.3-1.5s-1.6-2.6-1.6-4.9v-2.3c0-2.2.5-3.8,1.6-4.7,1.1-1,2.8-1.4,5.3-1.4h4.4c1.1,0,1.9.2,2.7.5.7.3,1.3.8,1.8,1.5v-7.8h2.2v20.4h-2v-2.4c-.4.9-1,1.6-1.7,2s-1.9.6-3.6.6h0ZM160.2,90.7c2.1,0,3.5-.3,4.1-.9.7-.6,1-1.8,1-3.6v-1.7c0-1.7-.3-2.9-1-3.5s-2.1-.9-4.1-.9h-3.2c-2.1,0-3.5.3-4.1.9-.7.6-1,1.8-1,3.5v1.7c0,1.8.3,2.9,1,3.6.7.6,2.1.9,4.1.9h3.2Z"/>
    </g>
    <g>
      <path d="M6.98,115.58h1.6l6.09,14.91h-2.02l-1.76-4.37h-6.26l-1.74,4.37H.86l6.11-14.91ZM10.46,124.65l-2.69-6.89-2.77,6.89h5.46Z"/>
      <path d="M34.21,130.49v-11.53l-4.96,8.84h-1.07l-4.98-8.84v11.53h-1.89v-14.91h1.99l5.4,9.68,5.42-9.68h1.97v14.91h-1.89Z"/>
      <path d="M39.38,117.47v-2.31h1.85v2.31h-1.85ZM39.38,130.49v-10.96h1.85v10.96h-1.85Z"/>
      <path d="M48.72,130.7c-.76,0-1.46-.15-2.1-.46s-1.2-.72-1.66-1.24c-.46-.52-.82-1.12-1.08-1.81-.26-.69-.39-1.41-.39-2.16s.12-1.5.37-2.19c.24-.69.59-1.3,1.03-1.82.44-.52.97-.93,1.58-1.23s1.28-.45,2.01-.45c.88,0,1.67.23,2.36.69.69.46,1.24,1.02,1.65,1.68v-6.55h1.85v13.06c0,.43.2.66.59.67v1.6c-.2.03-.35.05-.47.06-.12.01-.23.02-.35.02-.36,0-.68-.12-.96-.37-.27-.25-.41-.53-.41-.85v-.92c-.43.71-1.01,1.27-1.73,1.67-.72.4-1.48.6-2.28.6ZM49.16,129.1c.34,0,.68-.06,1.04-.19s.69-.3,1.01-.52c.31-.22.59-.49.82-.79.23-.3.38-.62.45-.96v-3.15c-.13-.35-.31-.68-.57-1-.25-.32-.54-.59-.85-.82-.31-.23-.65-.41-1.01-.55s-.71-.2-1.06-.2c-.55,0-1.04.12-1.48.35-.44.23-.82.54-1.13.92s-.56.83-.72,1.32c-.17.5-.25,1-.25,1.52,0,.55.1,1.07.29,1.57.2.5.46.93.8,1.29.34.36.73.65,1.19.87.46.22.95.33,1.48.33Z"/>
      <path d="M57.27,125.59v-1.68h6.19v1.68h-6.19Z"/>
      <path d="M71.36,115.66h1.78l1.97,5.19,2-5.19h1.79l-2.58,6.49,2.56,6.15,5.04-12.73h2.06l-6.24,14.91h-1.64l-2.96-7.04-2.98,7.04h-1.64l-6.22-14.91h2.04l5.06,12.73,2.54-6.15-2.58-6.49Z"/>
      <path d="M91.06,130.7c-.83,0-1.58-.15-2.27-.45-.69-.3-1.27-.71-1.76-1.23-.49-.52-.87-1.12-1.14-1.82-.27-.69-.41-1.42-.41-2.2s.14-1.5.41-2.18c.27-.69.66-1.29,1.15-1.81.5-.52,1.09-.93,1.77-1.23.69-.3,1.44-.45,2.27-.45s1.58.15,2.26.46c.68.31,1.26.72,1.73,1.23.48.51.84,1.11,1.1,1.79.26.68.39,1.38.39,2.11,0,.15,0,.29-.01.42,0,.13-.02.22-.03.29h-9.09c.04.55.17,1.04.38,1.49.21.45.48.83.82,1.16.34.32.72.57,1.14.76.43.18.88.27,1.35.27.34,0,.67-.05.99-.14.32-.09.62-.21.9-.37.28-.15.53-.34.75-.57.22-.22.38-.48.49-.76l1.6.44c-.18.41-.43.78-.75,1.11-.31.34-.68.63-1.09.87-.41.25-.87.44-1.38.58s-1.03.21-1.58.21ZM94.82,124.27c-.04-.52-.17-1-.39-1.44-.22-.44-.49-.82-.82-1.12-.33-.31-.71-.55-1.14-.72-.43-.17-.9-.26-1.39-.26s-.95.09-1.39.26c-.43.18-.82.42-1.14.74-.33.32-.6.69-.8,1.12-.2.43-.33.91-.37,1.43h7.43Z"/>
      <path d="M102.46,130.7c-.88,0-1.75-.14-2.6-.41-.85-.27-1.59-.67-2.21-1.19l.8-1.24c.64.49,1.29.86,1.93,1.1s1.32.37,2.04.37c.8,0,1.43-.16,1.9-.47.47-.31.7-.76.7-1.33,0-.27-.06-.49-.19-.68-.13-.19-.31-.35-.57-.49s-.57-.27-.97-.38-.85-.23-1.36-.36c-.66-.17-1.23-.33-1.7-.48-.48-.15-.87-.34-1.18-.55-.31-.21-.53-.46-.67-.76-.14-.29-.21-.66-.21-1.09,0-.55.11-1.03.33-1.46.22-.43.51-.78.89-1.07s.82-.5,1.33-.65c.51-.15,1.06-.22,1.65-.22.83,0,1.6.13,2.31.4s1.32.62,1.81,1.05l-.84,1.11c-.46-.41-.98-.71-1.55-.91-.57-.2-1.16-.3-1.76-.3-.67,0-1.24.14-1.71.43-.47.29-.7.75-.7,1.38,0,.25.05.46.14.63.09.17.24.32.45.44s.48.24.81.34c.33.1.72.2,1.19.31.73.17,1.36.34,1.9.51.54.18.99.38,1.34.62.36.24.62.52.8.84.17.32.26.71.26,1.18,0,1.02-.39,1.83-1.18,2.44-.78.6-1.84.9-3.17.9Z"/>
      <path d="M114.66,129.94c-.11.06-.26.12-.44.2-.18.08-.39.15-.62.23s-.48.14-.76.19c-.27.05-.56.07-.85.07-.67,0-1.25-.19-1.74-.56-.49-.37-.73-.95-.73-1.73v-7.37h-1.49v-1.45h1.49v-3.65h1.85v3.65h2.46v1.45h-2.46v6.8c.03.41.16.7.4.88.24.18.52.27.84.27.36,0,.7-.06,1-.18.3-.12.51-.21.62-.28l.44,1.47Z"/>
      <path d="M121.99,130.49v-14.91h9.85v1.68h-7.96v4.98h6.7v1.58h-6.7v6.68h-1.89Z"/>
      <path d="M135.56,130.7c-.52,0-1-.09-1.45-.26-.45-.17-.84-.42-1.17-.72-.33-.31-.59-.67-.78-1.08s-.28-.86-.28-1.35.11-.96.34-1.38c.22-.41.54-.77.96-1.06s.9-.52,1.47-.69,1.19-.25,1.86-.25c.53,0,1.07.05,1.62.15.55.1,1.03.23,1.45.4v-.88c0-.9-.25-1.6-.76-2.11-.5-.51-1.22-.77-2.14-.77-1.11,0-2.27.43-3.49,1.28l-.61-1.2c1.41-.95,2.83-1.43,4.26-1.43s2.57.39,3.37,1.16c.8.77,1.21,1.86,1.21,3.25v4.47c0,.43.2.66.59.67v1.6c-.2.03-.36.05-.48.06-.13.01-.26.02-.4.02-.36,0-.65-.11-.87-.33-.22-.22-.35-.48-.39-.79l-.04-.78c-.49.66-1.11,1.16-1.86,1.5s-1.55.51-2.4.51ZM136.04,129.31c.66,0,1.27-.12,1.84-.37.57-.24,1-.57,1.29-.98.27-.27.4-.54.4-.82v-1.62c-.9-.35-1.83-.53-2.79-.53s-1.68.2-2.26.59c-.58.39-.87.9-.87,1.53,0,.31.06.6.18.86.12.27.29.5.5.69.22.2.47.35.77.46.29.11.61.17.95.17Z"/>
      <path d="M160.91,130.49h-1.85v-6.13c0-1.15-.19-2-.56-2.54s-.92-.82-1.65-.82-1.43.27-2.03.81c-.6.54-1.02,1.24-1.27,2.09v6.59h-1.85v-6.13c0-1.18-.18-2.03-.55-2.56-.36-.53-.91-.8-1.64-.8s-1.41.26-2.02.79c-.6.52-1.03,1.22-1.28,2.09v6.62h-1.85v-10.96h1.68v2.35c.45-.81,1.03-1.44,1.74-1.88.71-.44,1.52-.66,2.42-.66s1.66.25,2.19.75.87,1.14,1,1.92c.98-1.78,2.37-2.67,4.18-2.67.63,0,1.16.12,1.58.35.43.23.77.55,1.02.97.25.41.43.9.55,1.46s.17,1.17.17,1.83v6.55Z"/>
      <path d="M163.78,117.47v-2.31h1.85v2.31h-1.85ZM163.78,130.49v-10.96h1.85v10.96h-1.85Z"/>
      <path d="M168.65,115.16h1.85v12.5c0,.41.11.72.33.96.22.23.52.35.91.35.15,0,.34-.02.55-.07s.41-.11.59-.18l.29,1.49c-.31.13-.67.23-1.09.32-.42.08-.79.13-1.11.13-.71,0-1.28-.2-1.69-.61s-.62-.97-.62-1.7v-13.17Z"/>
      <path d="M174.72,133.47c.18.03.36.05.55.06s.32.02.42.02c.17,0,.32-.04.45-.12.13-.08.27-.23.4-.45.13-.22.28-.54.45-.93s.38-.92.63-1.56l-4.64-10.96h1.91l3.74,9.3,3.4-9.3h1.76l-5.33,13.84c-.2.49-.52.92-.98,1.29-.46.37-1.08.56-1.88.56-.13,0-.25,0-.39-.02-.13-.01-.3-.04-.49-.08v-1.64Z"/>
      <path d="M189.74,122.93c0-.9.16-1.79.47-2.68.32-.89.78-1.69,1.39-2.39.61-.71,1.35-1.28,2.24-1.71s1.88-.65,3-.65c1.33,0,2.47.3,3.42.9s1.66,1.39,2.12,2.35l-1.49.97c-.22-.48-.49-.87-.81-1.2-.31-.32-.66-.58-1.03-.78s-.75-.34-1.14-.42c-.39-.08-.78-.13-1.15-.13-.83,0-1.56.17-2.19.51-.64.34-1.17.79-1.61,1.34-.43.55-.76,1.18-.98,1.87-.22.69-.33,1.39-.33,2.09,0,.78.13,1.53.39,2.24s.62,1.33,1.08,1.88c.46.55,1.01.98,1.64,1.3s1.32.48,2.06.48c.39,0,.79-.05,1.21-.15.41-.1.81-.26,1.19-.47s.73-.49,1.06-.82.6-.72.81-1.19l1.57.86c-.24.56-.57,1.05-1,1.48-.43.43-.91.79-1.45,1.08s-1.11.52-1.71.67c-.6.15-1.19.23-1.76.23-1.02,0-1.96-.22-2.81-.67-.85-.45-1.59-1.03-2.22-1.75-.62-.72-1.11-1.54-1.45-2.46-.34-.92-.51-1.85-.51-2.8Z"/>
      <path d="M209.52,130.7c-.83,0-1.58-.15-2.26-.46s-1.26-.72-1.74-1.24c-.48-.52-.86-1.12-1.12-1.81-.27-.69-.4-1.41-.4-2.16s.14-1.5.41-2.18c.27-.69.65-1.29,1.13-1.81.48-.52,1.06-.93,1.74-1.24.68-.31,1.42-.46,2.24-.46s1.56.15,2.25.46c.69.31,1.27.72,1.75,1.24.48.52.86,1.12,1.13,1.81.27.69.41,1.41.41,2.18s-.13,1.48-.4,2.16c-.27.69-.64,1.29-1.13,1.81-.49.52-1.07.93-1.75,1.24-.68.31-1.43.46-2.26.46ZM205.89,125.05c0,.57.09,1.11.28,1.6.19.49.45.92.78,1.28.33.36.71.65,1.15.86.44.21.91.32,1.42.32s.98-.11,1.42-.32c.44-.21.83-.5,1.17-.87s.6-.8.79-1.3c.19-.5.28-1.03.28-1.61s-.09-1.09-.28-1.58c-.19-.5-.45-.93-.79-1.3s-.72-.66-1.17-.87c-.44-.21-.91-.31-1.42-.31s-.98.11-1.42.33c-.44.22-.83.51-1.15.88-.33.37-.59.81-.78,1.3-.19.5-.28,1.03-.28,1.61Z"/>
      <path d="M233.84,130.49h-1.85v-6.13c0-1.15-.19-2-.56-2.54s-.92-.82-1.65-.82-1.43.27-2.03.81-1.02,1.24-1.27,2.09v6.59h-1.85v-6.13c0-1.18-.18-2.03-.55-2.56-.36-.53-.91-.8-1.64-.8s-1.42.26-2.02.79c-.6.52-1.03,1.22-1.28,2.09v6.62h-1.85v-10.96h1.68v2.35c.45-.81,1.03-1.44,1.74-1.88.71-.44,1.52-.66,2.42-.66s1.66.25,2.19.75.87,1.14,1,1.92c.98-1.78,2.37-2.67,4.18-2.67.63,0,1.16.12,1.59.35.43.23.77.55,1.02.97.25.41.43.9.55,1.46.11.56.17,1.17.17,1.83v6.55Z"/>
      <path d="M242.62,130.7c-.91,0-1.71-.22-2.4-.67s-1.24-1.01-1.65-1.7v6.64h-1.85v-15.43h1.64v2.06c.43-.67,1-1.21,1.69-1.63s1.46-.62,2.3-.62c.76,0,1.45.15,2.08.46.63.31,1.18.72,1.64,1.25s.82,1.13,1.08,1.82c.26.69.39,1.4.39,2.14,0,.78-.12,1.52-.36,2.22-.24.69-.57,1.29-1.01,1.81-.43.51-.95.92-1.55,1.22-.6.3-1.27.45-2,.45ZM242.05,129.1c.55,0,1.04-.12,1.48-.35.44-.23.82-.54,1.13-.92.31-.38.56-.82.72-1.31s.25-.99.25-1.51c0-.55-.1-1.07-.29-1.56-.2-.5-.46-.93-.8-1.3-.34-.37-.73-.67-1.19-.88-.46-.22-.95-.33-1.48-.33-.34,0-.68.07-1.04.2-.36.13-.69.31-1.01.53-.32.22-.59.48-.82.78-.23.3-.38.62-.45.96v3.13c.15.36.35.7.59,1.02.24.31.51.59.82.82.31.23.64.41.99.55.35.13.71.2,1.09.2Z"/>
      <path d="M252.61,130.7c-.52,0-1-.09-1.45-.26s-.84-.42-1.17-.72c-.33-.31-.59-.67-.78-1.08-.19-.41-.28-.86-.28-1.35s.11-.96.34-1.38c.22-.41.54-.77.96-1.06s.9-.52,1.47-.69c.57-.17,1.19-.25,1.86-.25.53,0,1.07.05,1.62.15.55.1,1.03.23,1.45.4v-.88c0-.9-.25-1.6-.76-2.11-.5-.51-1.22-.77-2.14-.77-1.11,0-2.27.43-3.49,1.28l-.61-1.2c1.41-.95,2.83-1.43,4.26-1.43s2.57.39,3.37,1.16c.8.77,1.21,1.86,1.21,3.25v4.47c0,.43.2.66.59.67v1.6c-.2.03-.36.05-.48.06-.13.01-.26.02-.4.02-.36,0-.66-.11-.87-.33s-.35-.48-.39-.79l-.04-.78c-.49.66-1.11,1.16-1.86,1.5s-1.55.51-2.4.51ZM253.1,129.31c.66,0,1.27-.12,1.84-.37.57-.24,1-.57,1.29-.98.27-.27.4-.54.4-.82v-1.62c-.9-.35-1.83-.53-2.79-.53s-1.68.2-2.26.59c-.58.39-.87.9-.87,1.53,0,.31.06.6.18.86.12.27.29.5.5.69s.47.35.77.46.61.17.95.17Z"/>
      <path d="M270.95,130.49h-1.85v-6.13c0-1.18-.18-2.03-.54-2.56-.36-.53-.9-.8-1.63-.8-.38,0-.76.07-1.13.22s-.74.35-1.07.6-.63.55-.88.9c-.25.35-.44.73-.57,1.15v6.62h-1.85v-10.96h1.68v2.35c.43-.77,1.06-1.39,1.88-1.85s1.71-.69,2.68-.69c.63,0,1.15.12,1.58.35.42.23.76.55,1.01.97.25.41.43.9.54,1.46.11.56.16,1.17.16,1.83v6.55Z"/>
      <path d="M274.12,133.47c.18.03.36.05.55.06s.32.02.42.02c.17,0,.32-.04.45-.12.13-.08.27-.23.4-.45.13-.22.28-.54.45-.93s.38-.92.63-1.56l-4.64-10.96h1.91l3.74,9.3,3.4-9.3h1.76l-5.33,13.84c-.2.49-.52.92-.98,1.29-.46.37-1.08.56-1.88.56-.13,0-.25,0-.39-.02-.13-.01-.3-.04-.49-.08v-1.64Z"/>
    </g>
  </g>
</svg>