<?xml version="1.0" encoding="UTF-8"?>
<svg xmlns="http://www.w3.org/2000/svg" xmlns:xlink="http://www.w3.org/1999/xlink" version="1.1" viewBox="0 0 216 99.56">
  <!-- Generator: Adobe Illustrator 29.6.0, SVG Export Plug-In . SVG Version: 2.1.0 Build 25)  -->
  <defs>
    <style>
      .st0 {
        fill: none;
      }

      .st1, .st2, .st3 {
        fill-rule: evenodd;
      }

      .st1, .st4 {
        fill: #fff;
      }

      .st2, .st5 {
        fill: #a51e22;
      }

      .st6 {
        clip-path: url(#clippath);
      }
    </style>
    <clipPath id="clippath">
      <rect class="st0" width="216" height="75"/>
    </clipPath>
  </defs>
  <g id="Layer_1">
    <g class="st6">
      <g>
        <path class="st5" d="M112.87,30.08c0,4.36-3.73,7.88-8.29,7.88H8.59c-4.56,0-8.29-3.52-8.29-7.88V8.11c0-4.36,3.73-7.88,8.29-7.88h95.98c4.56,0,8.29,3.52,8.29,7.88v21.96h0Z"/>
        <path d="M101.61,15.31c0-4.59,3.73-8.34,8.29-8.34h85.49c4.56,0,8.29,3.75,8.29,8.34v21.12c0,4.59-3.73,8.34-8.29,8.34h-85.56c-4.56,0-8.29-3.75-8.29-8.34l.08-21.12h-.01Z"/>
        <path class="st4" d="M32.63,25.79v-11.71c0-.77.3-1.45.84-1.99.53-.54,1.22-.84,1.98-.84h.68c.76,0,1.44.31,1.98.84.53.54.84,1.22.84,1.99v14.08c0,.84-.23,1.53-.76,1.99-.68.77-1.37,1.07-2.13,1.07H13.92c-.84,0-1.52-.31-2.13-.99-.61-.54-.91-1.3-.91-2.14v-14.16c0-.77.3-1.45.84-1.99s1.22-.84,1.98-.84h.68c.76,0,1.45.31,1.98.84.53.53.84,1.22.84,1.99v11.71h4.56v-11.71c0-.77.3-1.45.84-1.99s1.22-.84,1.98-.84h.76c.76,0,1.44.31,1.98.84s.84,1.22.84,1.99v11.71l4.49.15h-.02Z"/>
        <path class="st2" d="M28.83,25.79v-.69h-.84l.84.69ZM28.83,25.1h3.04v-11.02c0-.99.38-1.84,1.06-2.53s1.52-1.07,2.51-1.07h.68c.99,0,1.83.38,2.51,1.07.68.69,1.06,1.53,1.06,2.53v14.08c0,1.07-.3,1.91-.91,2.45-.76.84-1.67,1.3-2.66,1.3H13.92c-1.06,0-1.98-.46-2.66-1.22l.08.08c-.76-.77-1.14-1.61-1.14-2.68V11.79c0-.99.3.38.99-.38.68-.77,1.52-1.07,2.51-1.07h.68c.99,0,1.83.38,2.51,1.07.61.69.99,1.53.99,2.53v11.02h3.19v-11.02c0-.99.3-1.84.99-2.53.68-.69,1.52-.99,2.51-.99h.76c.99,0,1.83.38,2.51,1.07.61.69.99,1.53.99,2.53v11.1-.02ZM21.07,25.64l.68-.69h-.68v.69ZM17.19,25.03l.68.69v-.69h-.68ZM31.87,25.79l.68-.69h-.68s0,.69,0,.69ZM33.46,25.79v.77h-5.93v-12.4c0-.61-.23-1.07-.61-1.53-.46-.38-.91-.61-1.52-.61h-.76c-.61,0-1.14.23-1.52.61-.38.38-.61.92-.61,1.53v12.4h-5.93v-12.4c0-.61-.15-1.15-.61-1.53s-.91-.61-1.52-.61h-.68c-.61,0-1.14.15-1.52.61s-.61.92-.61,1.53v14.08c0,.61.23,1.15.68,1.61.46.54.99.77,1.6.77h22.13c.61,0,1.14-.31,1.67-.92.38-.31.53-.84.53-1.53v-14.08c0-.61-.23-1.07-.61-1.53-.46-.38-.91-.61-1.52-.61h-.68c-.61,0-1.14.15-1.52.61s-.61.92-.61,1.53v11.71h.15Z"/>
        <path class="st1" d="M67.01,25.79c.53.54.84,1.22.84,1.99v.69c0,.77-.3,1.45-.84,1.99s-1.22.84-1.98.84h-19.47c-.84,0-1.52-.31-2.05-.92-.61-.54-.91-1.3-.91-2.07v-13.85c0-.84.3-1.53.91-2.07.53-.61,1.22-.92,2.05-.92h19.47c.84,0,1.52.31,2.05.92.61.54.91,1.22.91,2.07v6.58c0,.54-.15.99-.38,1.45-.46.99-1.29,1.45-2.66,1.45h-16.28v1.22h16.28c.84-.15,1.45.08,2.05.61v.02ZM48.75,18.75h13.01v-1.15h-13.01v1.15Z"/>
        <path class="st2" d="M48.07,19.52v-2.68h14.37v2.6h-14.37v.08ZM48.75,18.29h.15l.53.54v-.54h11.64v.54l.53-.54h.15l-.08-.08.08-.08h-.15l-.53-.54v.54h-11.64v-.54l-.53.54h-.15l.08.08-.08.08ZM48.83,18.21l.08-.08h.53v.15h-.53l-.08-.08h0ZM61.07,18.06h.53l.08.08-.08.15h-.53v-.23Z"/>
        <path class="st2" d="M65.03,24.18h-15.59v-.46l-.53.54h-.15l.08.08-.08.08h.15l.53.54v-.54h15.59c.3,0,.53,0,.76-.08-.23-.08-.46-.15-.76-.15h0ZM65.79,24.34c.61.15,1.22.46,1.83.99.61.61.99,1.45.99,2.45v.54c0,.92-.3,1.76-.99,2.45-.61.69-1.45,1.07-2.43,1.07h-19.47c-1.06,0-1.9-.38-2.51-1.15-.76-.69-1.14-1.53-1.14-2.53v-13.93c0-.99.38-1.84,1.06-2.53.68-.84,1.52-1.22,2.59-1.22h19.47c.99,0,1.9.38,2.51,1.07.76.69,1.06,1.53,1.06,2.6v6.58c0,.61-.23,1.22-.53,1.76v-.08c-.23.84-.99,1.68-2.43,1.91v.02ZM67.69,11.56l.08.08-.08-.08q0,.05,0,0ZM43.12,11.71l.08-.08c0,.05-.03.08-.08.08ZM43.2,30.77l-.08-.15c0,.05.03.1.08.15q0-.05,0,0ZM49.44,24.41h-.53l-.08-.08.08-.08h.53v.15h0ZM64.95,25.79h-16.96v-2.6h16.96c1.29,0,1.75-.61,1.98-1.07v-.15c.23-.31.3-.69.3-1.07v-6.58c0-.69-.23-1.22-.68-1.61-.46-.46-.99-.69-1.6-.69h-19.47c-.68,0-1.22.23-1.6.69v.08c-.46.46-.68.99-.68,1.61v13.85c0,.69.23,1.22.68,1.61.46.46.91.69,1.6.69h19.47c.61,0,1.14-.23,1.52-.61.38-.38.61-.84.61-1.45v-.69c0-.54-.23-1.07-.61-1.45-.38-.46-.91-.69-1.52-.54v-.02Z"/>
        <path class="st1" d="M96.29,30.23c-.53.69-1.29.99-2.13.99h-19.93c-.84,0-1.52-.31-2.13-.99-.61-.54-.91-1.22-.91-2.07V6.43c0-.77.3-1.45.84-1.99.53-.54,1.22-.84,1.98-.84h.76c.76,0,1.44.31,1.98.84.53.54.84,1.22.84,1.99v4.74h16.66c1.22,0,2.13.46,2.59,1.38.3.46.46.99.46,1.53v14.01c0,.84-.38,1.61-.99,2.14h-.02ZM77.5,25.1h13.39v-7.5h-13.39v7.5Z"/>
        <path class="st2" d="M76.82,25.79v-8.95h14.75v8.88h-14.75v.08h0ZM77.5,18.29h.68v-.69l-.68.69ZM90.89,18.29l-.68-.69v.69h.68ZM90.2,25.1l.68-.69h-.68v.69ZM77.5,24.41l.68.69v-.69h-.68ZM78.19,24.41h12.02v-6.12h-12.02v6.12Z"/>
        <path class="st2" d="M96.74,30.61c-.76.84-1.6,1.15-2.59,1.15h-19.93c-1.06,0-1.98-.46-2.66-1.15-.76-.69-1.06-1.53-1.06-2.53V6.35c0-.99.3-1.84.99-2.53.68-.69,1.52-1.07,2.51-1.07h.76c.99,0,1.83.38,2.51,1.07.61.69.99,1.53.99,2.53v4.06h15.97c1.9,0,2.81.99,3.19,1.76.38.61.53,1.22.53,1.91v14.01c0,1.07-.38,1.91-1.22,2.53h0ZM77.58,10.41l.68.69v-.69h-.68ZM71.65,30.61q-.05,0,0,0h0ZM96.82,30.61q-.05,0,0,0h0ZM95.75,29.69c.61-.46.84-.99.91-1.61v-13.93c0-.46-.15-.84-.38-1.22-.23-.38-.68-.99-1.98-.99h-17.34v-5.51c0-.61-.23-1.07-.61-1.53-.46-.38-.91-.61-1.52-.61h-.76c-.61,0-1.14.15-1.52.61s-.61.92-.61,1.53v21.66c0,.69.23,1.15.68,1.61.46.54.91.77,1.6.77h19.93c.61,0,1.14-.23,1.6-.77h0Z"/>
        <path class="st4" d="M107.92,34.97v-.69c0-.77.3-1.45.84-1.99.53-.54,1.22-.84,1.98-.84h16.28v-1.15h-16.28c-1.29,0-2.21-.46-2.66-1.45-.3-.46-.38-.92-.38-1.45v-6.58s.15-.38.38-1.15c.15-.46.3-.77.53-.92.53-.61,1.29-.92,2.13-.92h19.47c.76,0,1.45.31,1.98.84s.84,1.22.84,1.99v.69c0,.77-.3,1.45-.84,1.99-.53.54-1.22.84-1.98.84h-16.28v1.22h16.2c1.29,0,2.21.46,2.59,1.45.3.46.38.92.38,1.45v6.58s-.15.38-.38,1.15c-.15.46-.3.77-.61.99-.53.61-1.22.92-2.05.92h-19.47c-.76,0-1.37-.23-1.9-.84-.46-.77-.76-1.38-.76-2.14h0Z"/>
        <path class="st3" d="M107.39,34.97v-.69c0-.92.3-1.76.99-2.45.38-.46.91-.77,1.44-.92-1.29-.31-1.98-1.15-2.28-1.84-.31-.61-.46-1.22-.46-1.84v-6.73l.08-.15s.08-.15.38-1.07c.15-.61.46-.99.76-1.3l-.08.08c.69-.77,1.52-1.15,2.59-1.15h19.47c.91,0,1.75.38,2.43,1.07.61.69.99,1.53.99,2.45v.69c0,.92-.3,1.76-.99,2.45-.46.54-1.06.84-1.67.99,1.45.23,2.13,1.15,2.43,1.84v-.08c.3.54.46,1.15.46,1.76v6.73l-.08.08s-.15.31-.38,1.07c-.15.54-.38.99-.68,1.22-.68.77-1.52,1.15-2.59,1.15h-19.47c-.91.08-1.75-.31-2.43-.99-.68-.61-1.07-1.53-.91-2.37ZM130.21,24.49h-15.51v-.54l-.53.54h-.15l.08.08-.08.08h.15l.53.54v-.54h15.59c.3,0,.53,0,.76-.08-.23,0-.53-.08-.84-.08ZM110.81,30.99h15.59v.38l.46-.46h.23l-.15-.15.15-.08h-.23l-.46-.46v.46h-15.59c-.3,0-.68.08-.99.15.31.08.61.15.99.15h0ZM114.69,24.64h-.53l-.08-.08.08-.08h.53v.15h0ZM126.41,30.77h.46l.08.08-.08.15h-.46v-.23ZM109.29,36.73c.46.38.91.61,1.44.61h19.47c.61,0,1.14-.23,1.6-.77.15-.15.3-.38.38-.69.15-.61.23-.84.3-1.07v-6.51c0-.38-.08-.77-.3-1.07v-.15c-.23-.46-.61-1.07-1.98-1.07h-16.88v-2.6h16.96c.53,0,1.06-.15,1.44-.61.38-.38.61-.84.61-1.45v-.69c0-.54-.23-.99-.61-1.45-.38-.38-.84-.61-1.44-.61h-19.47c-.61,0-1.14.23-1.6.69-.15.08-.23.31-.38.69-.23.54-.31.84-.38.99v6.58c0,.38.08.77.31,1.07.15.46.61,1.07,1.98,1.07h16.96v2.45h-16.96c-.61,0-1.14.23-1.52.61s-.61.84-.61,1.45v.69c0,.54.23,1.07.68,1.84h0ZM108.46,20.97v.15-.15ZM108.46,21.05c-.08.08-.08.15-.08.15l.08-.15ZM132.49,34.97l.08-.31-.08.15v.15h0Z"/>
        <path class="st4" d="M143.29,23.57h-6.54c-.76,0-1.44-.23-1.98-.77-.53-.54-.84-1.07-.84-1.76v-1.15c0-.61.3-1.15.84-1.61.53-.46,1.22-.69,1.98-.69h6.54l.08-4.67c0-.61.3-1.22.84-1.91.61-.61,1.22-.92,1.98-.92h.69c.76,0,1.37.31,1.98.99.53.61.84,1.22.84,1.84v4.67h7.07c.76,0,1.45.23,1.98.69.53.46.84.99.84,1.61v1.07c0,.61-.3,1.22-.84,1.76-.53.54-1.22.77-1.98.77h-7.07v11.4c0,.69-.3,1.3-.84,1.91-.61.69-1.29.99-1.98.99h-.69c-.76,0-1.44-.31-1.98-.99-.53-.61-.84-1.22-.84-1.84l-.08-11.4h0Z"/>
        <path class="st3" d="M142.61,34.97l-.08-10.71h-5.86c-.91,0-1.75-.38-2.43-.99s-1.06-1.38-1.06-2.22v-1.15c0-.84.38-1.61,1.06-2.14.68-.54,1.52-.84,2.43-.84h5.86l.08-3.98c0-.84.38-1.61,1.06-2.37.76-.77,1.6-1.15,2.51-1.15h.69c.91,0,1.75.38,2.51,1.22.68.77.99,1.53.99,2.3v3.98h6.39c.91,0,1.75.31,2.43.84.68.61,1.07,1.3,1.07,2.14v1.07c0,.84-.38,1.53-1.07,2.22-.68.61-1.52.92-2.43.92h-6.39v10.71c0,.84-.38,1.68-1.06,2.37-.68.84-1.6,1.22-2.51,1.22h-.68c-.91,0-1.75-.38-2.51-1.22-.68-.69-.99-1.45-.99-2.22h-.01ZM150.36,23.42l-.68.69h.68v-.69ZM149.68,16.91l.68.69v-.69h-.68ZM142.53,17.6l.68-.69h-.68v.69ZM143.21,24.18l-.68-.69v.69h.68ZM143.9,22.88v12.09c0,.46.23.92.68,1.38.46.54.99.77,1.52.77h.68c.53,0,1.07-.23,1.52-.77.46-.46.68-.92.68-1.38v-12.09h7.76c.61,0,1.07-.23,1.52-.61.38-.38.61-.77.61-1.22v-1.15c0-.31-.08-.69-.61-1.07-.46-.38-.99-.54-1.6-.54h-7.76v-5.36c0-.46-.23-.92-.61-1.38-.46-.54-.91-.77-1.44-.77h-.69c-.53,0-.99.23-1.44.69-.46.54-.68.99-.68,1.45l-.08,4.67v.77h-7.23c-.61,0-1.14.23-1.6.54-.46.46-.53.84-.53,1.07v1.07c0,.46.23.84.61,1.22.46.38.91.61,1.52.61h7.17Z"/>
        <path class="st4" d="M167.48,34.97c0,.77-.3,1.45-.84,2.07-.53.61-1.22.84-1.98.84h-.68c-.76,0-1.45-.31-2.05-.84-.53-.54-.84-1.22-.84-2.07v-14.31c0-.77.3-1.45.84-2.07.53-.54,1.22-.84,2.05-.84h.68c.76,0,1.44.31,1.98.84.53.54.84,1.22.84,2.07v14.31Z"/>
        <path class="st3" d="M168.16,34.97c0,.99-.38,1.84-1.07,2.53-.68.69-1.52,1.07-2.51,1.07h-.68c-.99,0-1.82-.38-2.51-1.07-.68-.69-1.07-1.53-1.07-2.53v-14.31c0-.99.38-1.84,1.07-2.53.68-.69,1.52-1.07,2.51-1.07h.68c.99,0,1.82.38,2.51,1.07.68.69,1.07,1.53,1.07,2.53v14.31ZM166.79,20.66c0-.61-.15-1.15-.61-1.53-.46-.38-.91-.61-1.52-.61h-.68c-.61,0-1.14.23-1.52.61-.38.38-.61.92-.61,1.53v14.23c0,.61.23,1.07.61,1.53.38.38.91.61,1.52.61h.68c.61,0,1.07-.15,1.52-.61.38-.38.61-.92.61-1.53v-14.23Z"/>
        <path class="st4" d="M193.87,32.3l-6.08-4.59,6.08-4.59c.61-.46.99-1.07,1.14-1.91.15-.77-.08-1.45-.53-2.14l-.46-.61c-.46-.61-1.07-.99-1.9-1.07-.84-.08-1.52.08-2.13.54l-7.61,5.66-7.61-5.66c-.61-.46-1.37-.69-2.13-.54-.76.15-1.37.46-1.9,1.07l-.46.61c-.46.61-.68,1.38-.53,2.14.08.77.46,1.38,1.14,1.91l6.08,4.59-6.08,4.59c-.61.46-.99,1.15-1.14,1.91-.08.77.08,1.53.53,2.14l.46.61c.46.61,1.14.99,1.9,1.15.76.08,1.52-.08,2.13-.54l7.61-5.66,7.61,5.66c.61.46,1.37.69,2.13.54.76-.08,1.37-.46,1.9-1.15l.46-.61c.46-.61.61-1.3.53-2.14-.15-.77-.53-1.45-1.14-1.91Z"/>
        <path class="st3" d="M195.77,34.21c.15.92-.08,1.84-.68,2.6l-.46.61c-.61.77-1.37,1.22-2.36,1.38-.99.15-1.9-.08-2.66-.69l-7.15-5.36-7.15,5.36c-.84.61-1.67.84-2.66.69s-1.75-.61-2.36-1.38l-.46-.61c-.61-.77-.84-1.61-.68-2.6.15-.99.61-1.76,1.37-2.37l5.4-4.06-5.4-4.06c-.76-.61-1.22-1.45-1.37-2.37-.15-.92.08-1.84.68-2.6l.46-.61c.53-.77,1.29-1.22,2.28-1.38.99-.15,1.9.08,2.66.69l7.15,5.36,7.15-5.36c.84-.61,1.75-.84,2.66-.69s1.67.61,2.28,1.38l.46.61c.61.77.84,1.61.68,2.6-.08.99-.61,1.76-1.37,2.37l-5.4,4.06,5.4,3.98c.76.54,1.29,1.3,1.52,2.45h0ZM181.93,23.04h.84l-.46-.31-.38.31h0ZM182.84,32.37h-.84l.46.31.38-.31h0ZM193.49,32.91l-6.08-4.59-.76-.54.76-.54,6.08-4.59c.46-.38.76-.84.84-1.45.15-.61,0-1.15-.38-1.61l-.46-.61c-.38-.46-.84-.77-1.44-.84-.61-.08-1.07.08-1.6.46l-7.61,5.66-.38.31-.38-.31-7.61-5.66c-.46-.38-.99-.54-1.6-.46-.61.08-1.07.38-1.45.84l-.46.61c-.38.46-.53.99-.46,1.61.08.61.38,1.07.84,1.45l6.08,4.59.76.54-.76.54-6.08,4.52c-.46.38-.76.84-.84,1.45s0,1.15.38,1.61l.46.61c.38.46.84.77,1.45.84.61.08,1.14-.08,1.6-.46l7.61-5.66.38-.31.38.31,7.61,5.74c.46.31.99.46,1.6.38.61-.08,1.07-.38,1.44-.84l.46-.61c.3-.46.46-.99.38-1.61-.08-.61-.3-1.15-.76-1.38Z"/>
        <path class="st4" d="M167.48,14.92c0,.77-.3,1.45-.84,2.07-.53.54-1.22.84-1.98.84h-.68c-.76,0-1.45-.31-2.05-.84s-.84-1.22-.84-2.07v-1.76c0-.77.3-1.45.84-2.07.53-.54,1.22-.84,2.05-.84h.68c.76,0,1.44.31,1.98.84.53.54.84,1.22.84,2.07v1.76Z"/>
        <path class="st3" d="M168.16,14.92c0,.99-.38,1.84-1.07,2.53-.68.77-1.52,1.07-2.51,1.07h-.68c-.99,0-1.82-.38-2.51-1.07-.68-.69-1.07-1.53-1.07-2.53v-1.76c0-.99.38-1.84,1.07-2.53.68-.69,1.52-1.07,2.51-1.07h.68c.99,0,1.82.38,2.51,1.07.68.69,1.07,1.53,1.07,2.53,0,0,0,1.76,0,1.76ZM166.79,13.09c0-.61-.15-1.15-.61-1.53s-.91-.61-1.52-.61h-.68c-.61,0-1.14.23-1.52.61s-.61.92-.61,1.53v1.76c0,.61.15,1.07.61,1.53.38.38.91.61,1.52.61h.68c.61,0,1.07-.15,1.52-.61.38-.38.61-.92.61-1.53v-1.76Z"/>
        <path class="st4" d="M207.71,8.65h-1.52v-.54h3.8v.54h-1.6v4.59h-.68v-4.59Z"/>
        <path class="st4" d="M214.86,10.94c0-.69-.08-1.61-.08-2.22-.15.61-.38,1.22-.61,1.99l-.91,2.53h-.53l-.84-2.45c-.23-.69-.46-1.38-.61-1.99,0,.61-.08,1.53-.08,2.3l-.15,2.22h-.61l.38-5.13h.84l.91,2.53c.23.61.38,1.22.53,1.76.15-.54.3-1.07.53-1.76l.91-2.53h.84l.3,5.13h-.61l-.23-2.37h.02Z"/>
        <path class="st4" d="M13.31,55.26v15.61h-1.75v-15.61s1.75,0,1.75,0Z"/>
        <path class="st1" d="M20.38,71.02c-1.9,0-3.19-.38-4.03-1.15-.84-.77-1.22-1.99-1.22-3.75v-1.76c0-1.68.38-2.91,1.22-3.6s2.13-1.07,4.03-1.07h3.73c1.83,0,3.19.38,4.03,1.07s1.22,1.91,1.22,3.6v1.76c0,1.76-.38,2.98-1.22,3.75s-2.13,1.15-4.03,1.15h-3.73ZM20.84,69.41h2.81c1.6,0,2.66-.23,3.19-.69s.76-1.38.76-2.76v-1.3c0-1.3-.23-2.22-.76-2.68s-1.6-.69-3.19-.69h-2.81c-1.6,0-2.66.23-3.12.69-.53.46-.76,1.38-.76,2.68v1.3c0,1.38.23,2.22.76,2.76.46.38,1.52.69,3.12.69Z"/>
        <path class="st1" d="M35.9,71.02c-1.9,0-3.19-.38-4.03-1.15-.84-.77-1.22-1.99-1.22-3.75v-1.76c0-1.68.38-2.91,1.22-3.6.84-.69,2.13-1.07,4.03-1.07h3.73c1.83,0,3.19.38,4.03,1.07s1.22,1.91,1.22,3.6v1.76c0,1.76-.38,2.98-1.22,3.75s-2.13,1.15-4.03,1.15h-3.73ZM36.35,69.41h2.81c1.6,0,2.66-.23,3.19-.69s.76-1.38.76-2.76v-1.3c0-1.3-.23-2.22-.76-2.68s-1.6-.69-3.19-.69h-2.81c-1.6,0-2.66.23-3.12.69-.53.46-.76,1.38-.76,2.68v1.3c0,1.38.23,2.22.76,2.76.46.38,1.52.69,3.12.69Z"/>
        <path class="st4" d="M48.52,55.26v8.57h1.14l6.08-4.06h2.74l-7.3,4.82,8.67,6.2h-2.66l-7.53-5.28h-1.06v5.28h-1.75v-15.54h1.67Z"/>
        <path class="st1" d="M81.46,70.64c0,1.38-.46,2.37-1.29,3.06-.84.69-2.21.99-3.88.99h-3.19c-1.67,0-2.97-.31-3.8-.92-.38-.31-.76-.69-.99-1.15-.23-.46-.3-.99-.3-1.61h1.75c0,.69.3,1.22.84,1.53s1.52.46,2.81.46h2.74c1.45,0,2.43-.15,2.97-.54.53-.38.76-.99.76-1.99v-1.76c-.38.54-.84.92-1.29,1.22-.46.31-1.14.38-2.05.38h-3.42c-1.83,0-3.19-.38-3.96-1.07-.84-.69-1.22-1.91-1.22-3.6v-1.3c0-1.61.38-2.83,1.22-3.52.84-.69,2.13-1.07,4.03-1.07h2.43c1.45,0,2.43.15,3.04.38s.99.69,1.37,1.3v-1.61h1.6v10.79h-.15l-.02.03ZM73.32,68.72h2.74c1.45,0,2.43-.23,2.97-.61.53-.38.76-1.15.76-2.14v-1.84c0-1.07-.23-1.76-.76-2.14-.23-.23-.61-.38-1.14-.46-.46-.08-1.06-.15-1.83-.15h-2.74c-1.44,0-2.43.23-2.97.61-.53.38-.76,1.15-.76,2.22v1.84c0,1.07.23,1.76.76,2.14s1.52.54,2.97.54h0Z"/>
        <path class="st1" d="M88.07,71.02c-1.9,0-3.19-.38-4.03-1.15-.84-.77-1.22-1.99-1.22-3.75v-1.76c0-1.68.38-2.91,1.22-3.6.84-.69,2.13-1.07,4.03-1.07h3.73c1.83,0,3.19.38,4.03,1.07s1.22,1.91,1.22,3.6v1.76c0,1.76-.38,2.98-1.22,3.75-.84.77-2.13,1.15-4.03,1.15h-3.73ZM88.53,69.41h2.81c1.6,0,2.66-.23,3.19-.69s.76-1.38.76-2.76v-1.3c0-1.3-.23-2.22-.76-2.68s-1.6-.69-3.19-.69h-2.81c-1.6,0-2.66.23-3.12.69-.53.46-.76,1.38-.76,2.68v1.3c0,1.38.23,2.22.76,2.76.46.38,1.52.69,3.12.69Z"/>
        <path class="st1" d="M103.59,71.02c-1.9,0-3.19-.38-4.03-1.15-.84-.77-1.22-1.99-1.22-3.75v-1.76c0-1.68.38-2.91,1.22-3.6.84-.69,2.13-1.07,4.03-1.07h3.73c1.82,0,3.19.38,4.03,1.07s1.22,1.91,1.22,3.6v1.76c0,1.76-.38,2.98-1.22,3.75-.84.77-2.13,1.15-4.03,1.15h-3.73ZM104.04,69.41h2.81c1.6,0,2.66-.23,3.19-.69s.76-1.38.76-2.76v-1.3c0-1.3-.23-2.22-.76-2.68s-1.6-.69-3.19-.69h-2.81c-1.6,0-2.66.23-3.12.69-.53.46-.76,1.38-.76,2.68v1.3c0,1.38.23,2.22.76,2.76.46.38,1.52.69,3.12.69Z"/>
        <path class="st1" d="M121.84,71.02h-2.89c-1.9,0-3.19-.38-4.03-1.15-.84-.77-1.22-1.99-1.22-3.75v-1.76c0-1.68.38-2.91,1.22-3.6.84-.77,2.13-1.07,4.03-1.07h3.35c.84,0,1.44.15,2.05.38.53.23.99.61,1.37,1.15v-5.97h1.67v15.61h-1.52v-1.84c-.3.69-.76,1.22-1.29,1.53s-1.44.46-2.74.46h0ZM121.84,69.41c1.6,0,2.66-.23,3.12-.69.53-.46.76-1.38.76-2.76v-1.3c0-1.3-.23-2.22-.76-2.68s-1.6-.69-3.12-.69h-2.43c-1.6,0-2.66.23-3.12.69-.53.46-.76,1.38-.76,2.68v1.3c0,1.38.23,2.22.76,2.76.53.46,1.6.69,3.12.69h2.43Z"/>
      </g>
    </g>
  </g>
  <g id="Layer_3">
    <g>
      <path class="st4" d="M11.82,84.84h1.6l3.77,11.16h-1.5l-1.95-6.23c-.4-1.25-.76-2.47-1.12-3.76h-.07c-.35,1.29-.7,2.51-1.1,3.76l-1.97,6.23h-1.44l3.77-11.16ZM10.03,91.47h5.14v1.13h-5.14v-1.13Z"/>
      <path class="st4" d="M22.31,84.84h1.71l2.14,5.96c.27.76.52,1.55.79,2.32h.07c.27-.77.5-1.56.77-2.32l2.11-5.96h1.71v11.16h-1.32v-6.14c0-.97.11-2.31.18-3.3h-.07l-.89,2.54-2.1,5.77h-.94l-2.11-5.77-.88-2.54h-.07c.07.99.18,2.33.18,3.3v6.14h-1.29v-11.16Z"/>
      <path class="st4" d="M34.38,85.14c0-.55.42-.9.97-.9s.97.35.97.9-.42.9-.97.9-.97-.38-.97-.9ZM34.64,87.74h1.4v8.26h-1.4v-8.26Z"/>
      <path class="st4" d="M38.33,91.88c0-2.68,1.69-4.35,3.58-4.35.96,0,1.59.36,2.32.96l-.06-1.42v-3.18h1.4v12.11h-1.16l-.12-.98h-.05c-.64.64-1.52,1.18-2.51,1.18-2.06,0-3.4-1.57-3.4-4.33ZM44.17,93.9v-4.33c-.71-.63-1.34-.86-2.02-.86-1.32,0-2.37,1.27-2.37,3.16,0,1.98.82,3.16,2.27,3.16.76,0,1.43-.37,2.12-1.13Z"/>
      <path class="st4" d="M47.77,91.2h3.9v1.07h-3.9v-1.07Z"/>
      <path class="st4" d="M52.67,84.84h1.47l1.17,6.07c.22,1.2.44,2.4.65,3.6h.07c.25-1.2.52-2.4.78-3.6l1.55-6.07h1.29l1.55,6.07c.27,1.18.54,2.39.81,3.6h.07c.22-1.21.42-2.41.63-3.6l1.17-6.07h1.37l-2.31,11.16h-1.71l-1.69-6.71c-.19-.87-.37-1.68-.54-2.54h-.07c-.17.86-.37,1.67-.56,2.54l-1.65,6.71h-1.68l-2.37-11.16Z"/>
      <path class="st4" d="M66.53,91.88c0-2.69,1.81-4.35,3.71-4.35,2.11,0,3.3,1.51,3.3,3.88,0,.29-.02.59-.07.79h-5.56c.1,1.75,1.17,2.88,2.75,2.88.79,0,1.44-.26,2.06-.66l.5.92c-.72.47-1.6.86-2.73.86-2.2,0-3.96-1.61-3.96-4.33ZM72.3,91.2c0-1.66-.74-2.56-2.04-2.56-1.16,0-2.2.93-2.37,2.56h4.41Z"/>
      <path class="st4" d="M74.76,95.06l.69-.92c.72.58,1.45.98,2.44.98,1.08,0,1.62-.58,1.62-1.28,0-.85-.98-1.23-1.89-1.57-1.16-.42-2.46-.99-2.46-2.39s1.06-2.35,2.85-2.35c1.03,0,1.93.42,2.57.93l-.67.9c-.57-.42-1.15-.74-1.88-.74-1.04,0-1.52.55-1.52,1.19,0,.79.9,1.08,1.83,1.43,1.19.45,2.52.93,2.52,2.51,0,1.34-1.06,2.46-3.01,2.46-1.17,0-2.31-.5-3.08-1.15Z"/>
      <path class="st4" d="M82.81,93.45v-4.57h-1.23v-1.06l1.29-.08.17-2.32h1.17v2.32h2.24v1.14h-2.24v4.59c0,1.01.33,1.6,1.28,1.6.29,0,.67-.11.94-.22l.27,1.06c-.46.16-1.02.31-1.53.31-1.76,0-2.35-1.11-2.35-2.76Z"/>
      <path class="st4" d="M92.04,84.84h6.43v1.2h-5.01v3.76h4.25v1.2h-4.25v4.99h-1.42v-11.16Z"/>
      <path class="st4" d="M99.32,93.85c0-1.8,1.55-2.7,5.07-3.08,0-1.06-.36-2.09-1.71-2.09-.96,0-1.82.45-2.46.89l-.55-.96c.76-.5,1.92-1.08,3.25-1.08,2.02,0,2.87,1.34,2.87,3.4v5.07h-1.16l-.12-.99h-.05c-.79.66-1.71,1.19-2.73,1.19-1.38,0-2.42-.86-2.42-2.35ZM104.4,93.98v-2.29c-2.77.33-3.71,1.01-3.71,2.07,0,.94.64,1.32,1.45,1.32s1.46-.39,2.26-1.09Z"/>
      <path class="st4" d="M108.5,87.74h1.16l.12,1.2h.05c.72-.78,1.59-1.4,2.57-1.4,1.26,0,1.94.6,2.28,1.58.86-.93,1.72-1.58,2.73-1.58,1.7,0,2.51,1.12,2.51,3.23v5.24h-1.4v-5.05c0-1.54-.49-2.2-1.54-2.2-.64,0-1.31.42-2.07,1.27v5.98h-1.4v-5.05c0-1.54-.49-2.2-1.54-2.2-.62,0-1.31.42-2.07,1.27v5.98h-1.4v-8.26Z"/>
      <path class="st4" d="M122.44,85.14c0-.55.42-.9.96-.9s.97.35.97.9-.42.9-.97.9-.96-.38-.96-.9ZM122.7,87.74h1.4v8.26h-1.4v-8.26Z"/>
      <path class="st4" d="M126.98,94.34v-10.45h1.4v10.55c0,.43.19.6.39.6.08,0,.15,0,.31-.03l.19,1.07c-.2.07-.44.13-.8.13-1.05,0-1.48-.67-1.48-1.86Z"/>
      <path class="st4" d="M130.59,99.39l.27-1.11c.16.05.42.12.63.12.93,0,1.52-.75,1.86-1.77l.19-.61-3.32-8.28h1.44l1.69,4.57c.26.72.54,1.56.81,2.33h.07c.23-.75.47-1.6.69-2.33l1.47-4.57h1.37l-3.11,8.94c-.58,1.64-1.44,2.88-3.09,2.88-.38,0-.7-.07-.97-.17Z"/>
      <path class="st4" d="M142.44,90.43c0-3.6,2.12-5.79,4.95-5.79,1.35,0,2.42.66,3.07,1.38l-.78.92c-.59-.63-1.32-1.05-2.27-1.05-2.11,0-3.51,1.73-3.51,4.51s1.34,4.56,3.45,4.56c1.07,0,1.87-.46,2.59-1.25l.78.89c-.88,1.02-1.97,1.61-3.42,1.61-2.78,0-4.86-2.15-4.86-5.77Z"/>
      <path class="st4" d="M152.16,91.88c0-2.76,1.8-4.35,3.83-4.35s3.83,1.59,3.83,4.35-1.8,4.33-3.83,4.33-3.83-1.59-3.83-4.33ZM158.37,91.88c0-1.89-.96-3.18-2.38-3.18s-2.38,1.29-2.38,3.18.96,3.16,2.38,3.16,2.38-1.27,2.38-3.16Z"/>
      <path class="st4" d="M162.09,87.74h1.15l.12,1.2h.05c.72-.78,1.59-1.4,2.57-1.4,1.26,0,1.94.6,2.28,1.58.86-.93,1.72-1.58,2.72-1.58,1.7,0,2.51,1.12,2.51,3.23v5.24h-1.4v-5.05c0-1.54-.49-2.2-1.54-2.2-.64,0-1.31.42-2.07,1.27v5.98h-1.4v-5.05c0-1.54-.49-2.2-1.54-2.2-.62,0-1.31.42-2.07,1.27v5.98h-1.4v-8.26Z"/>
      <path class="st4" d="M176.28,87.74h1.15l.12.95h.05c.75-.62,1.68-1.16,2.63-1.16,2.13,0,3.28,1.66,3.28,4.21,0,2.82-1.69,4.46-3.58,4.46-.76,0-1.53-.35-2.29-.96l.04,1.44v2.8h-1.4v-11.75ZM182.07,91.76c0-1.82-.62-3.05-2.18-3.05-.7,0-1.41.38-2.21,1.13v4.33c.75.63,1.47.86,2.01.86,1.37,0,2.38-1.23,2.38-3.27Z"/>
      <path class="st4" d="M185.07,93.85c0-1.8,1.55-2.7,5.08-3.08,0-1.06-.36-2.09-1.71-2.09-.96,0-1.82.45-2.46.89l-.55-.96c.76-.5,1.92-1.08,3.25-1.08,2.02,0,2.87,1.34,2.87,3.4v5.07h-1.16l-.12-.99h-.05c-.79.66-1.71,1.19-2.73,1.19-1.38,0-2.42-.86-2.42-2.35ZM190.14,93.98v-2.29c-2.77.33-3.71,1.01-3.71,2.07,0,.94.64,1.32,1.45,1.32s1.46-.39,2.26-1.09Z"/>
      <path class="st4" d="M194.25,87.74h1.15l.12,1.19h.05c.79-.77,1.64-1.4,2.77-1.4,1.74,0,2.52,1.12,2.52,3.23v5.24h-1.4v-5.05c0-1.54-.47-2.2-1.56-2.2-.84,0-1.43.43-2.26,1.27v5.98h-1.4v-8.26Z"/>
      <path class="st4" d="M202.82,99.39l.27-1.11c.16.05.42.12.63.12.93,0,1.52-.75,1.86-1.77l.19-.61-3.32-8.28h1.44l1.69,4.57c.26.72.54,1.56.81,2.33h.07c.23-.75.47-1.6.69-2.33l1.47-4.57h1.37l-3.11,8.94c-.58,1.64-1.44,2.88-3.09,2.88-.38,0-.7-.07-.97-.17Z"/>
    </g>
  </g>
</svg>